<?xml version="1.0" encoding="UTF-8" standalone="no"?>
<svg
   xmlns:dc="http://purl.org/dc/elements/1.1/"
   xmlns:cc="http://creativecommons.org/ns#"
   xmlns:rdf="http://www.w3.org/1999/02/22-rdf-syntax-ns#"
   xmlns:svg="http://www.w3.org/2000/svg"
   xmlns="http://www.w3.org/2000/svg"
   xmlns:sodipodi="http://sodipodi.sourceforge.net/DTD/sodipodi-0.dtd"
   xmlns:inkscape="http://www.inkscape.org/namespaces/inkscape"
   sodipodi:docname="e.svg"
   inkscape:version="1.0 (4035a4fb49, 2020-05-01)"
   id="svg8"
   version="1.1"
   viewBox="0 0 210 297"
   height="297mm"
   width="210mm">
  <defs
     id="defs2" />
  <sodipodi:namedview
     inkscape:window-maximized="0"
     inkscape:window-y="0"
     inkscape:window-x="78"
     inkscape:window-height="1040"
     inkscape:window-width="1465"
     showgrid="false"
     inkscape:document-rotation="0"
     inkscape:current-layer="layer1"
     inkscape:document-units="mm"
     inkscape:cy="561.25984"
     inkscape:cx="396.85039"
     inkscape:zoom="0.75722503"
     inkscape:pageshadow="2"
     inkscape:pageopacity="0.0"
     borderopacity="1.0"
     bordercolor="#666666"
     pagecolor="#ffffff"
     id="base" />
  <metadata
     id="metadata5">
    <rdf:RDF>
      <cc:Work
         rdf:about="">
        <dc:format>image/svg+xml</dc:format>
        <dc:type
           rdf:resource="http://purl.org/dc/dcmitype/StillImage" />
        <dc:title></dc:title>
      </cc:Work>
    </rdf:RDF>
  </metadata>
  <g
     id="layer1"
     inkscape:groupmode="layer"
     inkscape:label="Warstwa 1">
    <circle
       r="32.89801"
       cy="106.12986"
       cx="60.351379"
       id="path19"
       style="fill:#000000;stroke-width:1.84126" />
    <g
       transform="matrix(6.9591111,0,0,6.9591111,-271.30244,-433.14176)"
       style="font-size:10.5833px;line-height:1.25;font-family:'Comic Sans MS';-inkscape-font-specification:'Comic Sans MS';fill:#ffff00;stroke-width:0.264583"
       id="text12"
       aria-label="e">
      <path
         id="path14"
         style="fill:#ffff00;stroke-width:0.264583"
         d="m 47.766018,80.310394 q -1.167883,0 -1.891351,-0.583942 -0.790647,-0.645953 -0.790647,-1.808669 0,-1.343583 0.651121,-2.253086 0.707965,-0.992184 1.891352,-0.992184 0.857826,0 1.400426,0.289387 0.666624,0.356566 0.666624,1.095537 0,0.516763 -0.583942,0.940508 -0.258381,0.186035 -1.095536,0.578774 l -1.974034,0.935341 q 0.289387,0.428913 0.7183,0.645953 0.434081,0.21704 1.007687,0.21704 0.356567,0 0.837156,-0.134358 0.60978,-0.170532 0.785479,-0.444416 0.1757,-0.279052 0.377237,-0.279052 0.180867,0 0.320393,0.139526 0.144693,0.134358 0.144693,0.315225 0,0.573607 -0.925005,0.987017 -0.790647,0.351399 -1.539953,0.351399 z m -0.139525,-4.707708 q -0.630451,0 -1.049029,0.490924 -0.418577,0.485757 -0.625283,1.467606 l 1.586462,-0.754473 q 0.93534,-0.454751 1.333248,-0.790647 -0.444416,-0.41341 -1.245398,-0.41341 z" />
    </g>
    <circle
       style="fill:#000000;stroke-width:1.84126"
       id="path19-5"
       cx="142.77077"
       cy="106.71114"
       r="32.89801" />
    <g
       transform="matrix(6.9591111,0,0,6.9591111,-188.76679,-474.99084)"
       style="font-size:10.5833px;line-height:1.25;font-family:Arial;-inkscape-font-specification:Arial;fill:#ffff00;stroke-width:0.264583"
       id="text44"
       aria-label="e">
      <path
         id="path46"
         style="fill:#ffff00;stroke-width:0.264583"
         d="m 49.178163,84.565225 0.961179,0.118856 q -0.227376,0.842323 -0.842323,1.307409 -0.614948,0.465087 -1.570959,0.465087 -1.204057,0 -1.912022,-0.738971 -0.702797,-0.744138 -0.702797,-2.082553 0,-1.384924 0.713133,-2.149733 0.713132,-0.764809 1.85001,-0.764809 1.100704,0 1.798334,0.749306 0.69763,0.749306 0.69763,2.108392 0,0.08268 -0.0052,0.248046 h -4.09276 q 0.05168,0.904334 0.511595,1.384924 0.459918,0.480589 1.147213,0.480589 0.511595,0 0.873329,-0.268717 0.361734,-0.268716 0.573606,-0.857826 z m -3.054067,-1.503779 h 3.064403 Q 49.126489,82.368984 48.8371,82.022753 48.392684,81.48532 47.684719,81.48532 q -0.640786,0 -1.080034,0.428913 -0.43408,0.428913 -0.480589,1.147213 z" />
    </g>
  </g>
</svg>
