<?xml version="1.0" encoding="UTF-8" standalone="no"?>
<!-- Created with Inkscape (http://www.inkscape.org/) -->

<svg
   xmlns:dc="http://purl.org/dc/elements/1.1/"
   xmlns:cc="http://creativecommons.org/ns#"
   xmlns:rdf="http://www.w3.org/1999/02/22-rdf-syntax-ns#"
   xmlns:svg="http://www.w3.org/2000/svg"
   xmlns="http://www.w3.org/2000/svg"
   xmlns:sodipodi="http://sodipodi.sourceforge.net/DTD/sodipodi-0.dtd"
   xmlns:inkscape="http://www.inkscape.org/namespaces/inkscape"
   width="210mm"
   height="297mm"
   viewBox="0 0 210 297"
   version="1.1"
   id="svg8"
   inkscape:version="0.92.4 (5da689c313, 2019-01-14)"
   sodipodi:docname="fight-1296057_1280.svg">
  <defs
     id="defs2" />
  <sodipodi:namedview
     id="base"
     pagecolor="#ffffff"
     bordercolor="#666666"
     borderopacity="1.0"
     inkscape:pageopacity="0.0"
     inkscape:pageshadow="2"
     inkscape:zoom="0.35"
     inkscape:cx="-64.285714"
     inkscape:cy="560"
     inkscape:document-units="mm"
     inkscape:current-layer="layer1"
     showgrid="false"
     inkscape:window-width="1366"
     inkscape:window-height="705"
     inkscape:window-x="-8"
     inkscape:window-y="-8"
     inkscape:window-maximized="1" />
  <metadata
     id="metadata5">
    <rdf:RDF>
      <cc:Work
         rdf:about="">
        <dc:format>image/svg+xml</dc:format>
        <dc:type
           rdf:resource="http://purl.org/dc/dcmitype/StillImage" />
        <dc:title />
      </cc:Work>
    </rdf:RDF>
  </metadata>
  <g
     inkscape:label="Layer 1"
     inkscape:groupmode="layer"
     id="layer1">
    <g
       id="g3724"
       transform="matrix(0.6619043,0,0,0.6619043,29.207204,56.56382)"
       style="fill:#18191a;fill-opacity:1">
      <path
         style="fill:#18191a;stroke-width:0.26458332;fill-opacity:1"
         d="m 81.880785,311.65015 c -1.057762,-0.84135 -1.278957,-2.38937 -1.2562,-8.79152 0.02349,-6.60874 0.277413,-9.28592 2.120495,-22.35729 1.693524,-12.01068 2.90018,-19.46399 6.112253,-37.75435 l 2.820128,-16.05851 -0.509937,-1.13709 c -0.794887,-1.77251 -2.61094,-4.43433 -7.865321,-11.52834 C 74.593477,202.26528 71.202567,197.26972 65.941193,188.44643 60.973074,180.11493 56.994477,174.3597 48.093897,162.62947 34.410243,144.59554 31.305751,140.23529 29.302573,136.23713 27.051749,131.7447 27.160882,130.54499 30.511999,122.94197 34.92818,112.92252 47.911395,90.298539 52.601476,84.449821 53.371741,83.489267 55.428445,80.590373 57.171928,78.007836 63.97241,67.934604 69.495118,62.488664 74.509231,60.911531 l 1.451875,-0.456671 2.914816,0.813699 c 2.238021,0.624764 3.472146,1.158447 5.315114,2.298462 2.25992,1.397929 2.421035,1.456404 2.754858,0.999876 0.343609,-0.469913 0.398221,-0.469667 1.768543,0.008 3.290906,1.147138 15.873273,6.223301 22.789713,9.194157 4.10512,1.763294 8.23776,3.530504 9.18365,3.927133 6.46859,2.712413 18.80625,8.735986 21.61545,10.55324 2.09562,1.355637 2.32901,2.067914 2.10156,6.413608 -0.47091,8.997225 -3.0822,15.380785 -6.97622,17.054145 -8.09953,3.48056 -16.26163,5.96712 -22.12113,6.73914 -1.28569,0.1694 -3.66695,0.2657 -5.29169,0.21401 l -2.95407,-0.094 -6.34997,-6.36628 c -5.521457,-5.53564 -9.716317,-9.31709 -11.314837,-10.19975 -0.762646,-0.4211 -0.87703,0.46682 -0.308666,2.39602 0.366372,1.24358 0.50436,2.48356 0.487463,4.38043 -0.02077,2.33231 -0.133254,2.94517 -0.949232,5.17195 -1.307682,3.56864 -2.891073,6.13674 -5.226335,8.47662 -1.925879,1.92968 -2.071669,2.01987 -3.788887,2.34382 -2.011111,0.3794 -2.263557,0.78629 -0.891714,1.43728 0.899901,0.42703 1.699604,0.62101 5.588068,1.35551 2.009175,0.37952 4.184494,1.32188 8.863542,3.83975 0.800364,0.43069 3.241145,1.33097 5.423958,2.00062 5.49672,1.68631 7.88935,2.84484 9.43982,4.57085 3.98498,4.43613 14.79263,19.65144 28.12508,39.59526 13.13726,19.65185 17.85243,27.40382 17.5066,28.7817 -0.77568,3.09056 -10.973,10.70592 -17.43882,13.02333 -3.07046,1.10048 -2.9246,1.13984 4.70065,1.26869 3.58222,0.0605 6.10558,0.21626 6.56124,0.40491 1.00401,0.41569 1.40584,1.54266 1.60461,4.50027 0.0913,1.35881 0.33847,3.14474 0.54921,3.96875 0.21074,0.824 0.80484,4.05803 1.32022,7.18673 1.78453,10.83336 2.67892,19.4107 2.38918,22.91286 -0.14194,1.71561 -0.0703,2.56 0.35923,4.23334 0.2951,1.14964 0.66139,3.39994 0.81399,5.00067 0.45506,4.77335 0.88842,13.09608 0.72457,13.91534 -0.16738,0.83688 0.017,1.56279 0.39698,1.56279 0.68693,0 0.72066,-1.69691 0.23516,-11.83167 -0.85183,-17.78209 -1.12085,-27.12185 -1.01952,-35.39646 0.10852,-8.86114 0.15392,-9.11182 1.93329,-10.67412 1.09996,-0.96578 1.58811,-1.21135 3.23197,-1.62585 0.95804,-0.24158 5.64911,-3.39967 5.83255,-3.92656 0.12221,-0.35102 -0.35462,-0.77655 -2.09662,-1.87107 -3.36982,-2.1173 -5.82111,-5.50277 -7.10733,-9.81594 -0.32547,-1.0914 -0.91821,-2.63922 -1.31722,-3.43958 -0.399,-0.80037 -1.98123,-4.90802 -3.51605,-9.12813 -1.53483,-4.2201 -3.61379,-9.63744 -4.6199,-12.03854 -1.00611,-2.40109 -1.98061,-4.84187 -2.16554,-5.42396 -0.18494,-0.58208 -0.7788,-1.59411 -1.31969,-2.24895 -16.8034,-20.34333 -24.26887,-29.65544 -24.91501,-31.0779 -0.60868,-1.34 -0.62235,-2.09665 -0.0483,-2.67074 0.37022,-0.37022 0.75889,-0.42012 2.21699,-0.2846 3.80739,0.35386 23.04647,4.42036 29.08408,6.14741 1.81901,0.52032 4.91463,1.34766 6.87916,1.83854 2.39395,0.59817 4.39037,1.29778 6.05382,2.12147 2.16213,1.07062 2.9122,1.64581 5.82084,4.46369 6.73984,6.52954 10.78518,10.26898 12.33472,11.402 2.84279,2.07865 3.10013,2.31879 4.01124,3.74309 0.52208,0.81614 1.09322,1.40662 1.36056,1.40662 0.25341,0 0.91276,-0.37258 1.46521,-0.82796 0.88152,-0.72662 1.08521,-0.79116 1.66426,-0.52733 0.64032,0.29175 7.27129,4.40024 17.2956,10.7162 2.69214,1.69622 5.03848,3.2904 5.21409,3.54262 0.22942,0.32949 0.24798,0.75644 0.066,1.51659 -0.13934,0.5819 -0.85248,3.67738 -1.58475,6.87884 -2.81805,12.32031 -3.28946,13.42862 -7.65174,17.98962 -2.56054,2.67719 -3.40626,3.7808 -4.89058,6.38199 -2.12515,3.72418 -3.27413,5.32958 -6.06195,8.46999 -3.20543,3.61082 -2.90307,2.47714 -4.01337,15.04798 -0.67335,7.62362 -0.89749,16.54847 -0.75418,30.03021 0.17173,16.15524 -0.10754,24.49674 -0.95668,28.575 -0.28784,1.38245 -0.60399,3.9226 -0.70256,5.64478 -0.13711,2.39545 -0.28817,3.26588 -0.64289,3.70416 l -0.46368,0.57293 -18.34602,0.16447 c -10.09031,0.0905 -33.05024,0.17711 -51.02206,0.19256 -30.586557,0.0262 -32.712793,0 -33.250765,-0.42905 z M 247.38545,199.80846 c -1.0605,-0.39013 -8.00139,-4.9513 -8.32064,-5.46789 -0.12748,-0.20622 0.2237,-0.65786 0.97046,-1.24809 2.16617,-1.71213 6.97992,-6.76655 8.35158,-8.76914 1.68751,-2.4637 3.28866,-5.57095 4.29617,-8.33723 0.49863,-1.36903 0.92747,-2.14363 1.21923,-2.2022 0.46728,-0.0938 5.71245,3.26419 7.36494,4.71508 1.58779,1.39412 2.15712,4.66299 1.36033,7.81068 -0.3451,1.36332 -7.74245,11.71295 -8.9661,12.54443 -2.01096,1.3665 -4.2359,1.70484 -6.27597,0.95436 z m -17.56084,-4.99285 c -0.43865,-0.197 -4.48678,-2.61355 -8.99583,-5.37013 -20.91998,-12.78926 -28.70349,-17.6614 -28.70349,-17.96714 0,-0.7837 28.61375,-28.59026 30.17659,-29.32531 0.54565,-0.25664 2.84027,1.523 18.80162,14.5819 10.01125,8.19079 10.47433,8.61129 10.8086,9.81488 1.06212,3.82411 -1.76093,11.23241 -6.84091,17.95202 -5.51349,7.29304 -12.08071,11.73555 -15.24658,10.31378 z m -45.93473,-24.5144 c -0.52765,-0.27883 -3.63693,-3.28884 -6.90952,-6.68892 -4.35494,-4.5246 -6.0396,-6.45298 -6.28378,-7.19285 -0.51307,-1.55462 -0.20002,-3.92401 0.70221,-5.31481 1.07085,-1.65072 39.41548,-47.50152 40.25798,-48.1387 1.13471,-0.85817 3.46527,-0.70828 5.60394,0.36041 1.48385,0.74149 2.78684,1.93727 9.49758,8.71615 5.04336,5.09457 7.94817,8.22885 8.26242,8.9151 0.84246,1.83979 0.56626,4.50901 -0.63506,6.13732 -0.33427,0.45307 -10.30702,10.19094 -22.16167,21.6397 -14.91508,14.40442 -21.93828,21.01321 -22.80187,21.45643 -1.59406,0.81813 -4.09811,0.868 -5.53223,0.11017 z m -22.598,-19.93249 c -0.58728,-0.19247 -1.83744,-0.77938 -2.77812,-1.30424 -0.94069,-0.52486 -5.22268,-2.63536 -9.51555,-4.68999 -8.55503,-4.09458 -9.37774,-4.65843 -10.75105,-7.3684 -0.68439,-1.35053 -0.75832,-1.75436 -0.75832,-4.14225 0,-2.15224 0.1065,-2.87626 0.57087,-3.88099 0.78206,-1.69208 37.0132,-53.532262 38.28063,-54.772626 0.55885,-0.546915 1.68994,-1.325308 2.51354,-1.729761 1.33733,-0.656735 1.78323,-0.73537 4.16996,-0.73537 4.29542,0 4.4254,0.09218 15.09728,10.706648 10.4706,10.414264 10.27605,10.138587 10.27605,14.56106 0,2.684082 -0.0313,2.834024 -0.92604,4.429399 -0.84602,1.50858 -33.96049,43.697 -36.34523,46.30447 -0.56565,0.61847 -1.79855,1.50362 -2.73979,1.96699 -1.41995,0.69904 -2.0787,0.85632 -3.86889,0.92375 -1.29714,0.0489 -2.58337,-0.0583 -3.22534,-0.26869 z m -39.67804,-12.98328 c -3.80346,-1.46608 -10.33597,-5.15937 -16.53646,-9.34924 -7.274397,-4.91554 -8.466665,-6.13797 -8.466665,-8.68089 0,-2.32323 1.651685,-3.82168 4.212525,-3.82168 1.84082,0 2.42193,0.44743 4.02237,3.09703 1.53498,2.54125 2.31943,3.14516 4.42752,3.40855 2.35852,0.29467 5.42296,-0.37405 19.42888,-4.23976 14.08938,-3.88874 13.9462,-3.86545 13.9462,-2.2691 0,0.90045 0.26453,0.5627 -8.19627,10.46542 -3.8595,4.51725 -7.58589,8.95644 -8.28086,9.86488 -1.08487,1.41807 -2.09781,2.19893 -2.78853,2.14963 -0.0997,-0.007 -0.89559,-0.28829 -1.76871,-0.62484 z m 23.98965,-28.33717 c -1.45314,-1.84736 -1.42237,-6.4017 0.0858,-12.696927 1.25693,-5.246539 1.39728,-6.874439 0.68934,-7.995645 -1.08218,-1.713899 -3.93395,-3.34396 -10.30859,-5.892342 -6.32034,-2.52667 -10.16908,-4.236998 -11.06127,-4.915469 -1.95946,-1.490091 -1.67792,-3.673234 1.00428,-7.787169 0.90132,-1.382447 4.96339,-8.049947 9.02681,-14.816666 4.06343,-6.766719 7.7027,-12.635433 8.08728,-13.041587 1.69036,-1.785208 4.80847,-3.097996 7.35831,-3.097996 2.25759,0 4.12278,0.925642 15.05935,7.473561 11.70865,7.010183 12.51719,7.622558 13.8192,10.466527 0.86744,1.89474 1.08206,4.867283 0.48939,6.778377 -0.22221,0.716563 -3.83105,7.012495 -8.01963,13.990962 -7.3848,12.303572 -7.70391,12.784299 -10.52922,15.861485 -1.60249,1.745348 -4.18875,4.914884 -5.74725,7.043409 -4.23338,5.78175 -7.61972,9.29401 -8.96081,9.29401 -0.25865,0 -0.70549,-0.29904 -0.99298,-0.66453 z M 42.900301,79.401555 C 39.18952,77.131613 35.980383,75.10667 35.768883,74.901686 35.3011,74.448307 35.030434,74.806902 40.482353,68.656919 52.07232,55.582976 62.388384,40.982358 70.033693,26.832073 c 1.1825,-2.188622 1.97357,-3.373437 2.252358,-3.373437 0.236339,0 3.875426,2.827734 8.086857,6.283854 4.211431,3.45612 8.69474,7.117292 9.962909,8.135937 1.268169,1.018646 2.305846,2.044071 2.305955,2.278724 1.06e-4,0.234651 -0.356994,0.876099 -0.793557,1.425443 -0.436562,0.549344 -0.79375,1.142354 -0.79375,1.317805 0,0.501854 -2.414958,3.767939 -4.503361,6.090528 -3.67815,4.090601 -4.901155,6.713289 -4.277069,9.171998 0.412096,1.623536 0.134667,1.755188 -2.130121,1.010817 -4.671941,-1.535533 -9.284218,-0.09944 -13.90897,4.330748 -2.047127,1.961001 -7.331729,8.556325 -12.091572,15.090602 -2.131798,2.926517 -3.686196,4.819298 -3.993324,4.862653 -0.277895,0.03923 -3.521337,-1.77546 -7.249747,-4.05619 z m 77.611769,-4.234664 c -0.22052,-0.574664 0.33931,-1.115089 0.74003,-0.714375 0.33867,0.338678 0.12886,1.129036 -0.29972,1.129036 -0.15465,0 -0.35279,-0.186598 -0.44031,-0.414661 z m -6.83573,-1.794417 c -0.58208,-0.192267 -1.59412,-0.625435 -2.24896,-0.962596 -0.65484,-0.337164 -5.29828,-2.384235 -10.31875,-4.549048 -9.268326,-3.996481 -12.857375,-5.868006 -15.18361,-7.917558 -2.872822,-2.531128 -2.58332,-3.906147 1.950783,-9.265473 1.030187,-1.217684 5.241362,-7.492293 9.553951,-14.235292 4.241476,-6.631805 8.143816,-12.510288 8.671886,-13.063294 2.74111,-2.870578 7.33062,-3.839982 10.84049,-2.289751 1.61271,0.712303 19.53757,12.248557 21.07947,13.566534 2.66248,2.275821 3.27183,4.775012 1.85033,7.588924 -1.21376,2.402668 -17.37869,27.507305 -18.55679,28.819266 -1.9961,2.222902 -5.07792,3.154164 -7.6388,2.308288 z M 12.60551,73.306868 C 6.4245317,72.437212 -1.5496974,70.132434 -1.5496974,69.215611 c 0,-0.164629 1.93476557,-2.344034 4.299479,-4.843119 C 30.06008,35.510333 47.602433,10.193214 53.086626,-8.2736286 c 0.450871,-1.5182146 0.966362,-2.8092554 1.145532,-2.8689794 0.690531,-0.230176 4.681535,4.7574331 7.115574,8.8924252 3.591121,6.1006568 5.850393,12.8986548 6.697583,20.1525688 l 0.293558,2.513542 -1.701292,3.307291 C 59.118843,38.339551 45.701539,57.02256 33.919128,69.282227 l -2.528202,2.630612 -3.175,0.666663 c -2.719673,0.571058 -4.009765,0.679027 -8.995833,0.752856 -3.201458,0.0474 -6.17802,0.03593 -6.614583,-0.02548 z m -23.018749,-8.605636 c -8.811979,-5.974268 -15.696141,-15.147166 -19.146607,-25.512159 -1.699502,-5.105207 -2.294112,-10.1537 -2.070864,-17.58252 0.199024,-6.622764 0.515644,-9.110181 1.62583,-12.7727869 4.070468,-13.4288527 13.655461,-24.6719241 26.2430438,-30.7827481 7.3453225,-3.565892 13.8718392,-4.819007 23.5110962,-4.514213 8.100671,0.256144 11.341131,0.814746 16.412209,2.829194 6.151909,2.443799 14.147165,7.531465 14.147165,9.002344 0,0.262513 -0.369938,1.528581 -0.822085,2.813483 -5.924552,16.8362701 -29.883207,51.066947 -49.04288885,70.069518 -4.47151105,4.434845 -8.09132835,7.54331 -8.77266035,7.533396 -0.2732063,-0.004 -1.2111135,-0.491553 -2.0842388,-1.083508 z"
         id="path3738"
         inkscape:connector-curvature="0" />
      <path
         style="fill:#18191a;stroke-width:0.26458332;fill-opacity:1"
         d="m 81.836022,311.45084 c -0.90955,-1.15628 -1.187413,-3.92991 -1.019807,-10.17971 0.271695,-10.13116 2.613795,-26.62671 8.559019,-60.28169 l 2.539638,-14.3765 -0.962975,-1.89538 c -0.529635,-1.04246 -2.487237,-3.97898 -4.350226,-6.52559 -1.86299,-2.54662 -5.043932,-6.8924 -7.068762,-9.6573 C 74.574623,201.76416 70.119095,195.06873 66.327712,188.69092 61.256168,180.15965 57.498214,174.69966 48.754566,163.15863 34.191144,143.9359 31.479083,140.1277 29.440815,136.03884 c -1.441403,-2.89152 -1.751375,-4.23031 -1.380183,-5.96112 1.024527,-4.77721 7.918116,-18.54729 16.162072,-32.284075 3.864229,-6.438908 7.237854,-11.630636 8.819504,-13.572474 0.665898,-0.817544 2.634226,-3.601921 4.374062,-6.187509 5.522958,-8.207718 10.822368,-13.896816 14.798929,-15.887146 3.071669,-1.53742 3.503027,-1.578774 6.760064,-0.648097 2.091081,0.597514 3.390508,1.177636 5.367358,2.396236 2.396297,1.477158 2.623862,1.565854 2.799474,1.091128 0.105133,-0.284202 0.315942,-0.516731 0.468461,-0.516731 0.400344,0 7.205025,2.599087 13.498074,5.155668 17.44236,7.086034 35.80314,15.465332 40.76752,18.60505 0.95782,0.605769 1.88055,1.406617 2.05052,1.779664 0.43002,0.943777 0.38323,5.297278 -0.0909,8.458576 -0.87762,5.85165 -2.43388,9.90704 -4.49645,11.71713 -2.29118,2.01071 -14.24174,6.30762 -21.13534,7.59936 -3.15916,0.59198 -7.14961,0.8729 -9.35744,0.65875 l -1.91937,-0.18616 -4.29834,-4.45072 c -4.913837,-5.08806 -9.716683,-9.5416 -12.070837,-11.19295 l -1.617123,-1.13434 -0.291195,0.6391 c -0.224485,0.49269 -0.187698,1.0267 0.160579,2.33093 1.041021,3.89843 0.977574,5.49244 -0.374783,9.41589 -1.608889,4.66771 -5.473419,9.82771 -7.788094,10.39884 -2.576365,0.63569 -3.086661,0.83357 -3.086661,1.19691 0,0.6444 1.880811,1.38536 5.020513,1.97789 3.704632,0.69915 5.693159,1.43477 8.82083,3.26315 1.820748,1.06437 3.624217,1.80287 7.188453,2.9436 5.817008,1.86173 7.896188,2.87109 9.396968,4.5619 6.69279,7.54021 39.77724,56.14545 44.61899,65.55094 0.69498,1.35004 0.92635,2.08072 0.80807,2.55194 -0.82981,3.30622 -12.85386,11.96555 -18.38912,13.24324 -1.38932,0.3207 -1.64318,0.54916 -1.04231,0.93804 0.1819,0.11773 3.18823,0.28242 6.68073,0.36598 3.4925,0.0836 6.56276,0.24681 6.82281,0.36279 0.78157,0.34858 1.19084,1.49565 1.37687,3.85896 0.097,1.2325 0.46176,3.66966 0.81054,5.41591 1.92946,9.66033 3.32426,20.78114 3.42489,27.30675 0.0593,3.84458 0.19503,5.70259 0.48325,6.61458 0.22045,0.69755 0.47064,1.80403 0.55598,2.45888 0.34149,2.6203 0.94491,11.94292 0.94517,14.60262 2.7e-4,2.86427 0.1978,3.4645 0.93791,2.85025 0.4677,-0.38815 0.49951,-3.07922 0.12343,-10.44141 -1.3805,-27.02544 -1.54162,-43.6968 -0.44281,-45.82165 0.63561,-1.22914 2.2338,-2.42725 3.87967,-2.90845 0.80036,-0.234 1.75286,-0.61107 2.11666,-0.83793 0.90443,-0.56399 4.06038,-3.01368 4.275,-3.31832 0.33553,-0.47625 -0.10501,-0.94107 -2.02766,-2.13941 -3.38121,-2.10741 -5.60288,-5.13404 -7.09961,-9.67194 -0.3587,-1.08752 -1.01941,-2.78848 -1.46824,-3.77992 -0.44884,-0.99144 -1.96485,-4.98003 -3.36891,-8.86354 -1.40406,-3.88351 -3.47023,-9.26358 -4.5915,-11.95572 -1.12126,-2.69213 -2.18027,-5.32395 -2.35335,-5.84848 -0.17308,-0.52453 -0.70805,-1.4175 -1.18882,-1.98438 -7.98519,-9.41529 -24.06065,-29.39642 -24.7717,-30.79018 -1.00873,-1.97727 -0.61142,-2.91654 1.23371,-2.91654 2.32401,0 20.66557,3.78427 28.26421,5.83154 2.18281,0.5881 5.75468,1.52519 7.9375,2.08242 2.18281,0.55722 4.66773,1.32606 5.52203,1.70853 2.05465,0.91984 4.48809,2.68272 6.12154,4.43469 2.64831,2.84046 12.05894,11.45923 13.80414,12.64259 1.21581,0.8244 2.13755,1.72356 2.87177,2.80142 1.28719,1.88965 1.83798,2.05636 3.10847,0.94086 0.50659,-0.4448 1.01749,-0.80872 1.13534,-0.80872 0.11784,0 1.05462,0.49517 2.08173,1.10037 2.9009,1.70928 20.34421,12.69389 20.74883,13.06619 0.40448,0.37216 -0.42458,4.41613 -2.89526,14.12245 -1.79316,7.04462 -2.39384,8.2199 -6.28192,12.29113 -2.62678,2.7505 -3.40092,3.77346 -5.16798,6.82908 -2.10795,3.64511 -2.83276,4.63679 -6.09263,8.33587 -1.00156,1.1365 -2.03305,2.54262 -2.2922,3.1247 -0.3235,0.72663 -0.6017,2.59249 -0.8876,5.95313 -1.20985,14.22148 -1.30005,16.911 -1.33543,39.81979 -0.0316,20.43599 -0.0377,20.66382 -0.63311,23.33485 -0.33068,1.48354 -0.74975,4.373 -0.93127,6.42098 -0.25389,2.86462 -0.43569,3.82935 -0.78803,4.18182 -0.4256,0.42577 -2.25008,0.46998 -25.78259,0.62495 -13.92852,0.0917 -36.83524,0.18103 -50.90381,0.19844 l -25.579238,0.0317 z M 247.02633,199.44067 c -1.31384,-0.60013 -7.8052,-5.0172 -7.8052,-5.31107 0,-0.11822 0.65037,-0.71671 1.44528,-1.32997 0.79489,-0.61327 2.61951,-2.33415 4.05466,-3.82418 3.79696,-3.94214 6.43112,-8.12816 8.12927,-12.91838 0.5008,-1.41272 0.86024,-2.05097 1.15562,-2.05196 0.67022,-0.002 7.10433,4.4374 7.79309,5.37738 1.21833,1.66269 1.57721,4.43433 0.84344,6.51401 -0.60052,1.70207 -7.90572,11.99749 -9.10034,12.82536 -1.88042,1.30313 -4.58372,1.60136 -6.51582,0.71881 z m -17.99166,-5.26266 c -1.32588,-0.75339 -11.3945,-6.90683 -27.84293,-17.0162 -5.27375,-3.24129 -8.79155,-5.56306 -8.78948,-5.80109 0.002,-0.21828 0.6845,-0.97624 1.51689,-1.68435 0.83239,-0.70812 2.76359,-2.63597 4.29156,-4.28412 5.29459,-5.71104 23.86429,-23.22085 24.48457,-23.08707 0.79745,0.17199 27.624,22.09564 28.5366,23.32116 0.81172,1.09003 0.77981,4.63587 -0.0647,7.18958 -3.30647,9.99879 -13.53798,21.51255 -19.55919,22.01042 -1.0073,0.0833 -1.50763,-0.0428 -2.57333,-0.64833 z m -44.18542,-23.65114 c -0.88889,-0.23252 -2.02143,-1.25753 -7.07388,-6.40223 -3.47136,-3.53475 -6.24092,-6.58034 -6.54843,-7.2011 -0.68304,-1.37882 -0.69478,-3.58007 -0.0267,-5.0097 0.61897,-1.32457 39.76215,-48.23762 40.81252,-48.91375 1.05788,-0.68095 3.13813,-0.4833 5.15149,0.48947 1.2952,0.62578 2.83486,2.044 9.3144,8.5797 4.26949,4.3065 7.99021,8.27174 8.26823,8.81165 0.6676,1.29637 0.6626,3.67383 -0.0109,5.15716 -0.2776,0.61145 -1.21893,1.80208 -2.09188,2.64583 -0.87294,0.84376 -10.70145,10.34473 -21.84114,21.11328 -12.30368,11.89375 -20.69757,19.81227 -21.38408,20.17301 -1.36262,0.71605 -3.13505,0.93196 -4.56968,0.55668 z m -23.44926,-20.32399 c -0.3823,-0.11564 -1.69199,-0.74722 -2.91042,-1.4035 -1.21842,-0.65628 -5.64468,-2.83291 -9.83613,-4.83696 -6.87779,-3.28847 -7.73413,-3.76977 -8.78317,-4.93655 -1.72841,-1.92241 -2.32507,-3.74464 -2.19092,-6.69119 0.0829,-1.82114 0.25275,-2.66131 0.72205,-3.57188 0.58167,-1.12857 35.89989,-51.901271 37.26973,-53.578123 0.93924,-1.149755 2.82688,-2.426661 4.32088,-2.922887 2.59422,-0.861663 6.21527,-0.394925 8.38745,1.081112 0.49436,0.335928 4.83139,4.51916 9.63784,9.296069 7.78299,7.735162 8.82709,8.872288 9.54431,10.394682 0.69118,1.46712 0.8046,2.010857 0.80027,3.836458 -0.004,1.549276 -0.16093,2.522353 -0.57891,3.582269 -0.43509,1.10336 -4.96326,7.00954 -18.72763,24.42683 -10.96465,13.87456 -18.57261,23.27501 -19.21141,23.73775 -1.70061,1.23192 -3.6686,1.84481 -5.84054,1.81893 -1.04957,-0.0125 -2.2211,-0.11736 -2.6034,-0.23301 z m -39.91844,-13.07602 c -6.53194,-2.73543 -19.49086,-10.77784 -23.100119,-14.33612 -2.666124,-2.62846 -1.984058,-6.08014 1.380487,-6.98611 2.144122,-0.57736 3.263712,0.10853 4.983312,3.05289 1.72517,2.9539 2.43335,3.35508 5.90174,3.3433 2.79098,-0.009 3.85187,-0.25769 18.99666,-4.44481 6.59919,-1.82449 12.16536,-3.25324 12.36927,-3.175 0.4956,0.19019 0.47137,1.48494 -0.0415,2.21716 -0.22672,0.32369 -3.45708,4.13042 -7.17858,8.45939 -3.72149,4.32898 -7.4687,8.79136 -8.32713,9.91641 -2.18495,2.86359 -2.50761,2.99001 -4.98415,1.95289 z M 145.57148,108.612 c -1.32771,-2.18325 -1.25071,-5.66754 0.26214,-11.862904 1.66848,-6.832676 1.61965,-7.951012 -0.42579,-9.751475 -1.58377,-1.394092 -3.87495,-2.5576 -9.3742,-4.760399 -5.62278,-2.252287 -9.73059,-4.050207 -10.69003,-4.678855 -1.05428,-0.690792 -1.56807,-1.85403 -1.36894,-3.099339 0.2099,-1.312654 0.8887,-2.646934 2.79399,-5.49206 0.82833,-1.236927 4.6971,-7.60677 8.59727,-14.155208 4.74502,-7.966953 7.46239,-12.266675 8.21308,-12.99561 2.34567,-2.277703 5.91931,-3.251158 9.11813,-2.483774 1.64349,0.394266 22.84417,12.975384 24.39587,14.477238 0.53625,0.519023 1.36358,1.671209 1.83851,2.560413 1.13334,2.121958 1.37556,5.331922 0.56286,7.459358 -0.28253,0.739589 -3.89623,6.97752 -8.03045,13.862071 -7.275,12.114783 -7.61035,12.619315 -10.42717,15.687325 -1.60073,1.74348 -4.18672,4.911484 -5.74665,7.040009 -4.28695,5.84957 -7.35669,9.02943 -8.71672,9.02943 -0.27135,0 -0.7222,-0.3763 -1.0019,-0.83622 z M 42.88982,79.154567 c -3.705015,-2.254943 -6.84581,-4.264678 -6.979541,-4.466074 -0.17876,-0.269214 0.419195,-1.092737 2.258153,-3.109997 12.525813,-13.740299 23.386017,-28.826809 31.782698,-44.15111 1.489673,-2.718715 2.079228,-3.568041 2.468261,-3.555825 0.281114,0.0088 3.908901,2.806795 8.061748,6.217708 4.152849,3.410913 8.523594,6.975565 9.712766,7.92145 1.189175,0.945885 2.166938,1.912094 2.172806,2.147131 0.0059,0.235037 -0.229208,0.732295 -0.522393,1.105019 -0.293185,0.372726 -0.89276,1.361477 -1.332389,2.197224 -0.439629,0.83575 -1.658265,2.514359 -2.708082,3.730247 -3.701668,4.287239 -4.446166,5.253479 -5.088164,6.603627 -0.700546,1.473276 -0.89893,3.083271 -0.573694,4.655814 0.246674,1.192689 0.01368,1.241724 -2.200023,0.463021 -4.27904,-1.505217 -9.24741,0.06413 -13.719418,4.333518 -2.498386,2.385189 -9.449824,11.170898 -14.417794,18.222211 -0.731234,1.037883 -1.451004,1.785937 -1.718407,1.785937 -0.253072,0 -3.491511,-1.844955 -7.196527,-4.099901 z m 77.79798,-4.234474 c 0,-0.218281 0.11906,-0.396875 0.26458,-0.396875 0.14552,0 0.26458,0.178594 0.26458,0.396875 0,0.218282 -0.11906,0.396875 -0.26458,0.396875 -0.14552,0 -0.26458,-0.178593 -0.26458,-0.396875 z M 13.577984,73.199188 C 8.4432628,72.659067 0.59303596,70.641678 -0.817,69.4999 -1.3875713,69.037879 -1.3765646,69.023444 3.3448163,64.040874 17.502543,49.099943 29.609656,34.273532 38.390158,21.124233 45.615357,10.304085 51.033245,-0.3717467 53.251171,-8.1590717 c 0.681198,-2.3917443 0.938035,-2.8553893 1.427136,-2.5762853 0.625189,0.356763 3.641103,4.1311629 5.229777,6.5450352 4.255408,6.4657789 7.352205,15.2247468 8.004649,22.6403138 0.175619,1.996066 0.172114,2.010973 -1.040117,4.424672 -3.451868,6.873078 -11.182133,19.166792 -16.831778,26.768162 -4.959514,6.672826 -10.486646,13.333799 -15.621557,18.826165 -2.80153,2.996552 -2.916246,3.084547 -4.5592,3.497244 -4.639415,1.165384 -11.782374,1.706282 -16.282097,1.232953 z m 100.230646,0.03359 c -0.3638,-0.120068 -1.25677,-0.519326 -1.98437,-0.88724 -0.72761,-0.367914 -5.54964,-2.487557 -10.71563,-4.710319 -9.347746,-4.02204 -12.705478,-5.776259 -15.113607,-7.895979 -2.776447,-2.443927 -2.485974,-3.490851 2.706066,-9.753242 0.815695,-0.983851 4.906071,-7.146634 9.089723,-13.695072 4.183648,-6.548437 8.040638,-12.359377 8.571088,-12.913201 0.53044,-0.553823 1.73584,-1.38726 2.67867,-1.852083 1.54421,-0.761315 1.95094,-0.845132 4.10104,-0.845132 2.01518,0 2.61339,0.106492 3.84202,0.683948 1.71935,0.80809 18.24673,11.387153 20.4183,13.069604 2.97527,2.30514 3.73007,4.914807 2.25354,7.791471 -1.09204,2.127565 -17.23822,27.274096 -18.33494,28.555362 -1.45026,1.69431 -2.99069,2.476455 -5.0843,2.581542 -0.97138,0.04875 -2.0638,-0.0096 -2.4276,-0.129659 z m -125.038823,-9.35904 c -2.649885,-1.872752 -7.324983,-6.264952 -9.462784,-8.890177 -4.495034,-5.519906 -8.005169,-12.601686 -9.824165,-19.820477 -1.51281,-6.003673 -1.526701,-17.57029 -0.02851,-23.74299 3.503594,-14.4352149 13.893002,-27.101442 27.4153759,-33.423407 6.853388,-3.204088 13.1983161,-4.550931 21.3833541,-4.539062 6.514393,0.0094 11.746542,0.891384 17.347644,2.924142 6.158663,2.235109 14.443333,7.47856 14.443333,9.141331 0,0.358818 -0.432199,1.808056 -0.96044,3.220529 -6.42716,17.1856561 -29.753302,50.404717 -48.52904446,69.110841 -4.60377894,4.586705 -8.18992824,7.672916 -8.91586444,7.672916 -0.2909705,0 -1.5819728,-0.74414 -2.8688941,-1.653646 z"
         id="path3736"
         inkscape:connector-curvature="0" />
      <path
         style="fill:#18191a;stroke-width:0.26458332;fill-opacity:1"
         d="m 81.975749,311.55697 c -0.90306,-1.40775 -1.096941,-2.92595 -1.077016,-8.43376 0.02331,-6.44413 0.372391,-9.90623 2.481009,-24.60625 1.791716,-12.49076 3.294425,-21.6908 6.340681,-38.81956 1.170286,-6.58037 2.127792,-12.32988 2.127792,-12.77667 0,-1.5253 -1.457587,-3.84393 -7.899027,-12.56522 C 74.857936,202.04654 71.62917,197.29713 66.291787,188.38203 60.655201,178.96717 56.566114,173.1291 45.011168,157.99926 34.768443,144.58762 31.520609,139.92868 29.456938,135.68712 c -1.936694,-3.98058 -1.845127,-5.17029 0.890961,-11.5761 4.436705,-10.38735 16.713051,-31.808548 22.912201,-39.979876 1.124588,-1.482357 3.230933,-4.468865 4.680768,-6.636681 3.870864,-5.787774 8.44157,-11.134217 11.500487,-13.45234 2.132295,-1.615906 5.136962,-3.012654 6.480783,-3.012654 2.004602,0 5.837303,1.390684 8.650036,3.138638 2.384843,1.482047 2.654173,1.591035 2.730381,1.104881 0.04699,-0.299773 0.285736,-0.539353 0.537469,-0.539353 0.992589,0 18.421406,7.005997 29.341516,11.794635 13.44159,5.894351 24.35243,11.232751 25.8327,12.639297 1.0554,1.002839 1.34123,2.544598 1.08193,5.835962 -0.60477,7.676581 -2.7694,13.885241 -5.46997,15.689131 -1.2055,0.80523 -7.36129,3.24394 -11.77932,4.66655 -6.82612,2.19802 -12.68284,3.2364 -17.06408,3.02543 l -2.5867,-0.12455 -5.88801,-5.94201 C 94.133876,105.07805 89.68364,101.26943 88.796117,101.61 c -0.555316,0.2131 -0.49148,1.89686 0.141682,3.73718 0.64027,1.86097 0.668787,3.515 0.103457,6.00057 -1.416219,6.22664 -5.898785,12.53581 -9.265163,13.04063 -1.307722,0.19611 -2.479961,0.63868 -2.479961,0.9363 0,0.32559 0.926108,1.02863 1.880066,1.42721 0.514062,0.21479 2.057516,0.58411 3.429899,0.8207 3.398552,0.5859 5.671058,1.41819 8.538954,3.12731 1.856586,1.10643 3.505273,1.78961 7.053164,2.92269 7.713945,2.46357 8.492615,2.97064 12.502265,8.14153 10.77961,13.90151 39.98486,57.47808 42.37343,63.22456 0.3661,0.88078 0.35536,1.0334 -0.14375,2.0422 -1.2286,2.48321 -8.36368,8.05831 -13.87135,10.83857 -0.87374,0.44106 -2.4478,1.0629 -3.49791,1.38186 -3.76963,1.14499 -2.7771,1.48488 4.83835,1.65691 3.45269,0.078 6.40574,0.26346 6.82582,0.42871 0.96791,0.38075 1.50856,1.70604 1.50856,3.69794 0,0.86253 0.41086,3.63456 0.91302,6.16006 1.92425,9.67754 3.3335,21.19319 3.41127,27.87516 0.0356,3.05999 0.16667,4.96075 0.3666,5.31704 0.58786,1.04764 1.37828,9.85332 1.44109,16.05457 0.0411,4.05882 0.30574,4.96348 1.19404,4.08207 0.59232,-0.58772 0.58901,-3.12586 -0.0206,-15.79639 -1.09578,-22.77541 -1.23952,-38.23506 -0.37409,-40.23272 0.53861,-1.24325 2.43035,-2.83472 3.77024,-3.17181 0.58981,-0.14838 1.31051,-0.36941 1.60155,-0.49117 0.87563,-0.36633 4.90534,-3.44891 5.07019,-3.87851 0.20771,-0.5413 -0.50804,-1.27686 -2.13709,-2.19624 -2.9564,-1.66849 -5.79974,-5.63313 -7.04653,-9.82538 -0.32459,-1.09141 -0.68163,-2.10344 -0.79343,-2.24896 -0.38671,-0.50335 -2.17956,-5.04737 -3.96689,-10.05417 -2.23105,-6.24977 -2.69532,-7.46029 -4.82008,-12.5677 -0.93836,-2.25558 -1.86161,-4.57667 -2.05167,-5.15798 -0.23074,-0.70572 -2.63706,-3.82685 -7.24158,-9.39271 -11.09311,-13.40915 -18.12057,-22.25759 -18.84752,-23.73136 -0.77173,-1.56455 -0.67278,-2.37682 0.31992,-2.62597 1.28135,-0.3216 17.64713,2.94259 27.62405,5.50969 14.92811,3.84104 14.94313,3.84592 17.5377,5.70036 0.96595,0.69039 4.66914,4.03681 8.22932,7.43648 3.56018,3.39968 7.10692,6.64407 7.88166,7.20976 2.53891,1.85386 3.66408,2.91473 4.19486,3.95516 0.43827,0.85907 1.1899,1.57157 1.65789,1.57157 0.0623,0 0.56277,-0.35719 1.11211,-0.79375 0.54934,-0.43657 1.19715,-0.79375 1.43958,-0.79375 0.48054,0 3.59003,1.88481 15.05998,9.12856 4.12705,2.60641 7.56731,4.90464 7.64504,5.10718 0.22929,0.59754 -2.93894,14.35704 -4.21557,18.30801 -0.97376,3.01361 -1.75583,4.20698 -4.93696,7.53327 -2.44315,2.55463 -3.41127,3.80062 -4.64848,5.98262 -2.22708,3.92779 -3.77944,6.13982 -6.10176,8.69465 -3.40105,3.74155 -3.34994,3.57971 -4.09848,12.97904 -0.79015,9.92171 -0.88346,13.26102 -0.94265,33.73437 -0.0625,21.6304 -0.10142,22.65606 -1.04322,27.51667 -0.22557,1.16417 -0.47831,3.42635 -0.56164,5.02708 -0.16379,3.14608 -0.45004,4.27861 -1.13003,4.47093 -1.10145,0.31155 -12.14902,0.42839 -55.37387,0.58574 l -46.472649,0.16917 z M 247.5555,199.45509 c -1.29585,-0.45388 -7.57187,-4.48402 -7.95949,-5.11118 -0.12348,-0.19983 0.28655,-0.71805 1.10334,-1.39439 5.9086,-4.89257 10.10748,-10.64203 12.28839,-16.8263 0.33359,-0.94589 0.70202,-1.82861 0.81875,-1.96161 0.29358,-0.33453 6.6915,3.94607 7.7551,5.18865 1.45611,1.70115 1.85219,4.04704 1.06653,6.31697 -0.51056,1.47511 -7.44426,11.45904 -8.76384,12.61917 -0.99142,0.87163 -3.05179,1.65662 -4.30628,1.64068 -0.37378,-0.005 -1.2749,-0.21715 -2.0025,-0.47199 z m -22.27872,-7.68832 c -9.03231,-5.46473 -32.8869,-20.1804 -32.8869,-20.28761 0,-0.0592 3.78023,-3.87414 8.40052,-8.47776 9.68623,-9.65128 21.02959,-20.31124 21.7377,-20.42807 0.76616,-0.1264 27.859,21.88026 28.76316,23.36343 1.11413,1.82759 0.21952,6.81632 -2.01679,11.24643 -4.62383,9.15973 -13.12502,17.45717 -17.88883,17.46004 -1.25397,8e-4 -1.70191,-0.21016 -6.10886,-2.87646 z M 184.2321,170.13742 c -0.99994,-0.51197 -12.36306,-12.10349 -12.98463,-13.24563 -0.63839,-1.17304 -0.55042,-3.96545 0.16295,-5.17248 0.32125,-0.54356 9.52043,-11.69696 20.44262,-24.78535 21.41823,-25.66608 20.47149,-24.65493 22.69403,-24.23798 1.32489,0.24855 3.07996,1.1104 4.54657,2.23264 0.68119,0.52125 4.37218,4.15082 8.20221,8.06572 7.71705,7.88807 8.1294,8.4607 7.87405,10.93472 -0.0809,0.78428 -0.42291,1.89226 -0.75993,2.4622 -0.69834,1.18087 -43.3903,42.51181 -44.83227,43.403 -1.2852,0.7943 -4.11025,0.97565 -5.3456,0.34316 z m -22.36669,-19.95569 c -0.56289,-0.14134 -2.22976,-0.89649 -3.70417,-1.67812 -1.4744,-0.78163 -5.8939,-2.95346 -9.8211,-4.82629 -7.82754,-3.73284 -8.53068,-4.22835 -9.84019,-6.93449 -0.62126,-1.28386 -0.72631,-1.83779 -0.73564,-3.87899 -0.01,-2.12174 0.0756,-2.55776 0.78286,-4.00098 1.24178,-2.53399 37.28439,-53.908503 38.4906,-54.863837 1.91474,-1.516507 3.32372,-1.986528 5.9594,-1.98801 3.97535,-0.0021 3.99296,0.01027 14.44658,10.242618 10.63757,10.412402 10.68883,10.483168 10.68883,14.753606 0,2.28346 -0.0742,2.661872 -0.79375,4.045313 -0.7492,1.44057 -33.85398,43.60871 -36.34819,46.29954 -2.20961,2.3838 -6.09834,3.58965 -9.12523,2.82964 z m -40.64845,-13.31925 c -3.86657,-1.61868 -9.28795,-4.67169 -15.08304,-8.49389 -7.45265,-4.91546 -9.258622,-6.6712 -9.258622,-9.0011 0,-2.0767 1.704367,-3.56927 4.075752,-3.56927 1.52628,0 2.17874,0.56444 3.81256,3.29823 1.56878,2.62498 2.31136,3.10381 5.047,3.25439 2.76922,0.15242 5.03848,-0.3573 19.60844,-4.40448 13.11223,-3.64227 13.27053,-3.66774 12.86981,-2.07114 -0.0899,0.35803 -3.47117,4.50553 -7.51401,9.21667 -4.04285,4.71114 -7.69846,9.04195 -8.12358,9.62404 -2.19286,3.00251 -2.80865,3.24574 -5.43431,2.14655 z m 24.4973,-28.27416 c -1.27761,-1.97178 -1.19393,-5.96046 0.2484,-11.840102 1.17439,-4.787379 1.41746,-7.246713 0.82874,-8.385162 -0.92514,-1.789022 -3.84165,-3.486039 -10.78223,-6.273792 -7.81349,-3.138365 -10.02452,-4.157106 -10.98172,-5.059859 -1.57707,-1.487374 -1.20467,-3.41117 1.4157,-7.313372 0.71638,-1.066829 4.61287,-7.476096 8.65884,-14.242814 8.11259,-13.567934 8.82377,-14.51914 11.67227,-15.611808 1.88333,-0.722432 4.94812,-0.806429 6.63332,-0.181801 2.04869,0.759362 22.10617,12.915111 23.53747,14.26478 2.00701,1.892554 2.86129,3.930139 2.85957,6.820495 -0.001,1.702652 -0.1334,2.539214 -0.54496,3.443851 -0.29899,0.657188 -3.84027,6.697141 -7.86951,13.422117 -6.92745,11.562201 -7.46944,12.382222 -9.96506,15.076984 -2.58955,2.796199 -3.57616,4.020781 -7.30535,9.067463 -4.70894,6.37257 -7.31971,8.48872 -8.40548,6.81302 z M 42.900301,79.040844 c -4.201049,-2.591856 -6.746875,-4.319733 -6.746875,-4.579173 0,-0.229161 1.256781,-1.827109 2.792849,-3.550994 8.752059,-9.82219 13.925986,-16.41322 20.426189,-26.020791 4.636921,-6.853561 9.339085,-14.625863 11.805179,-19.513021 0.458941,-0.909505 0.953193,-1.653646 1.098336,-1.653646 0.145142,0 2.973755,2.232422 6.285806,4.960938 3.312049,2.728515 7.77549,6.381205 9.918753,8.117086 2.143265,1.73588 3.896844,3.295007 3.896844,3.464721 0,0.169717 -0.217858,0.505732 -0.484132,0.746707 -0.266272,0.240972 -0.859946,1.182161 -1.319273,2.091528 -0.45933,0.909368 -1.606556,2.546364 -2.549388,3.63777 -5.716952,6.617835 -6.400485,7.836175 -6.123172,10.914062 0.0885,0.982266 0.126188,1.785938 0.08375,1.785938 -0.04244,0 -0.787411,-0.260043 -1.655493,-0.577872 -2.335681,-0.855162 -5.487469,-0.805248 -7.870139,0.12463 -2.183506,0.852154 -4.266375,2.207112 -6.33059,4.118213 -1.785035,1.65263 -7.009503,8.14366 -11.458868,14.236835 -4.13267,5.659474 -4.336484,5.914495 -4.703448,5.885137 -0.175696,-0.01406 -3.355543,-1.898687 -7.066324,-4.188068 z m 71.040619,-5.947482 c -0.58208,-0.184867 -1.65364,-0.63828 -2.38125,-1.007583 -0.7276,-0.369306 -5.42498,-2.426907 -10.43861,-4.57245 -5.339406,-2.284955 -10.052506,-4.480708 -11.377084,-5.300392 -6.522757,-4.036452 -6.760091,-5.238338 -2.114563,-10.708468 1.383559,-1.629146 4.930653,-6.86508 10.081206,-14.881061 8.588421,-13.366456 9.272661,-14.23312 12.075911,-15.295591 2.19722,-0.832779 5.06884,-0.801375 6.98614,0.0764 2.10662,0.964438 19.58588,12.24099 21.13982,13.638117 2.48164,2.23121 2.93861,4.247057 1.60257,7.069431 -0.41331,0.873125 -4.52265,7.481093 -9.13186,14.684374 -9.17142,14.333127 -10.07662,15.496273 -12.65579,16.262202 -1.61886,0.48075 -2.36143,0.487619 -3.78649,0.03503 z M 13.134677,73.038742 C 6.3188836,72.053685 -1.0205307,70.020153 -1.0205307,69.116754 c 0,-0.187751 1.92148079,-2.352085 4.2699567,-4.809635 11.507028,-12.04147 22.326943,-24.935875 30.8354,-36.747441 9.815203,-13.625605 16.367315,-25.8333636 19.586619,-36.4933793 0.260506,-0.8626086 0.60896,-1.6121667 0.774346,-1.6656837 0.40667,-0.131597 2.900243,2.8904235 5.167878,6.2630736 3.871653,5.7583047 6.512978,12.4573112 7.745852,19.6452494 0.780692,4.551619 0.714875,5.016367 -1.234282,8.715549 -7.949316,15.08652 -20.476746,32.510962 -32.079211,44.619071 -3.029686,3.161723 -2.674729,2.97975 -7.682185,3.938367 -2.039101,0.390364 -11.442297,0.715063 -13.229166,0.456817 z m -23.754712,-8.902049 c -7.750611,-5.326676 -14.158009,-13.477573 -17.75881,-22.591106 -2.900195,-7.34032 -3.949254,-16.135797 -2.946408,-24.703156 1.651583,-14.1095384 9.795534,-27.175885 21.9460642,-35.21078 9.91319886,-6.555394 21.3382188,-9.196183 33.7586568,-7.803005 6.68597,0.749953 12.973095,2.865245 18.921647,6.366156 2.73353,1.608768 6.186101,4.121841 6.5458,4.764586 0.514043,0.918545 -2.458398,8.1699717 -6.058464,14.77994558 C 34.579203,16.648163 19.236246,37.700805 4.5986396,53.513135 c -4.76767505,5.1503 -12.1603317,12.01425 -12.9396669,12.01425 -0.1405102,0 -1.1660635,-0.625811 -2.2790077,-1.390692 z"
         id="path3734"
         inkscape:connector-curvature="0" />
      <path
         style="fill:#18191a;stroke-width:0.26458332;fill-opacity:1"
         d="m 81.733951,310.88712 c -0.51857,-1.14295 -0.59246,-1.82552 -0.682942,-6.3087 -0.130691,-6.47552 0.29941,-11.044 2.466017,-26.19375 1.766991,-12.35548 3.561024,-23.29698 6.745999,-41.1427 1.833158,-10.27136 1.857901,-10.47036 1.439135,-11.5745 -0.626536,-1.65195 -2.466446,-4.36185 -8.575849,-12.63093 C 74.399702,201.22509 71.674179,197.20038 66.22853,188.08401 60.685036,178.80385 57.396009,174.12517 44.33548,156.94093 33.237003,142.33823 30.022525,137.56568 28.674195,133.68856 c -0.787114,-2.26335 -0.709252,-3.1144 0.61377,-6.70861 1.175213,-3.19265 6.385126,-13.79596 9.654198,-19.6484 5.086215,-9.105555 11.449441,-19.335852 14.392452,-23.139057 0.90596,-1.170758 2.974147,-4.093181 4.595974,-6.494275 6.399027,-9.473678 12.189591,-15.098773 16.900788,-16.417826 1.04479,-0.292521 1.447798,-0.250923 3.921689,0.404793 2.238258,0.593262 3.268487,1.048539 5.473419,2.418803 1.493901,0.928388 2.867432,1.687981 3.052291,1.687981 0.184857,0 0.336106,-0.238125 0.336106,-0.529167 0,-0.291042 0.05393,-0.529167 0.119838,-0.529167 0.266578,0 6.800582,2.495473 11.844059,4.523494 16.826621,6.76611 37.388811,16.099496 42.063041,19.092838 2.38379,1.526567 2.43753,1.676075 2.23917,6.22948 -0.34241,7.859783 -2.43645,14.093873 -5.38564,16.033403 -3.14682,2.0695 -15.08648,6.00752 -21.7763,7.18241 -2.97222,0.52199 -8.60315,0.63007 -9.42351,0.18087 -0.30798,-0.16864 -2.86783,-2.64412 -5.68854,-5.50106 -5.094176,-5.15961 -8.999918,-8.72944 -11.417124,-10.4352 -0.998731,-0.70478 -1.329296,-0.82235 -1.58714,-0.56451 -0.443148,0.44315 -0.335196,2.26799 0.229044,3.87182 1.341287,3.81253 -0.481573,10.3037 -4.279577,15.23949 -1.810345,2.35268 -3.056808,3.29241 -4.880395,3.6794 -1.844842,0.3915 -2.527729,0.80844 -2.299264,1.40381 0.283017,0.73753 2.160569,1.47297 5.123029,2.0067 3.614846,0.65127 5.697582,1.40781 8.626935,3.13367 2.404909,1.41688 3.085057,1.68895 8.766828,3.50688 5.401884,1.72837 6.646224,2.46424 8.983314,5.31245 8.81956,10.74841 41.59924,59.29581 44.0655,65.26194 0.52122,1.26087 0.18959,2.06553 -1.63944,3.97787 -4.10202,4.28889 -12.11863,9.43402 -16.32341,10.47652 -1.81148,0.44912 -2.06866,1.06887 -0.61146,1.47352 0.55458,0.154 3.38958,0.28133 6.3,0.28295 2.91041,0.002 5.7192,0.12172 6.24175,0.26687 1.20996,0.33611 1.50658,0.98813 1.71352,3.76664 0.0895,1.20131 0.50323,3.91061 0.91947,6.02066 1.92935,9.78061 3.19952,19.96128 3.3113,26.54085 0.0604,3.55423 0.2138,5.68386 0.47651,6.61459 0.2131,0.75499 0.45959,1.84893 0.54776,2.43102 0.31825,2.101 0.94444,11.70641 0.94867,14.55208 0.005,3.08957 0.16273,3.68051 0.94459,3.52994 0.92261,-0.17767 1.02229,-1.5249 0.68044,-9.19655 -1.60222,-35.95613 -1.67201,-45.56879 -0.3464,-47.71367 0.74409,-1.20396 2.26489,-2.2351 3.93572,-2.66851 0.9047,-0.23468 2.13571,-0.93696 3.75266,-2.14089 3.15277,-2.34745 3.16034,-2.54651 0.17177,-4.51463 -1.22899,-0.80936 -2.71766,-2.03386 -3.30816,-2.72112 -1.23234,-1.43429 -2.98122,-4.66445 -3.46994,-6.40894 -0.18345,-0.65485 -0.8589,-2.41837 -1.501,-3.91895 -0.64209,-1.50057 -2.09599,-5.31057 -3.23088,-8.46666 -2.22612,-6.19074 -2.9486,-8.06325 -5.80625,-15.04838 l -1.86042,-4.54752 -5.76674,-6.96185 c -3.1717,-3.82902 -8.03448,-9.75982 -10.80616,-13.17956 -8.70832,-10.74446 -9.48129,-11.83691 -9.32607,-13.18059 0.14411,-1.24748 1.51638,-1.15101 11.19453,0.78696 7.50451,1.50272 17.36373,3.76029 20.7022,4.74041 1.56514,0.4595 4.21493,1.16878 5.88842,1.57619 5.5252,1.3451 7.92762,2.61366 11.24135,5.93581 4.63389,4.64568 12.21918,11.57498 13.9636,12.75601 1.05805,0.71633 2.13569,1.70609 2.52684,2.32076 1.61125,2.53203 2.13777,2.73571 3.64681,1.41075 l 0.96994,-0.85161 1.35437,0.75528 c 0.74491,0.41541 3.85469,2.32373 6.91063,4.24073 3.05594,1.91699 7.54381,4.72854 9.97304,6.24789 2.42924,1.51935 4.48019,2.91352 4.55767,3.09816 0.17253,0.41112 -2.41258,11.92941 -3.68882,16.43608 -1.28524,4.53841 -2.12443,5.99384 -5.28564,9.16698 -2.90464,2.91559 -3.09397,3.17231 -6.09499,8.26425 -1.45074,2.46152 -2.7726,4.28094 -4.42123,6.08542 -3.90912,4.27863 -3.78378,3.89786 -4.54881,13.81885 -0.8861,11.49107 -1.01076,15.76647 -1.05302,36.11563 -0.0424,20.42638 -0.0566,20.9623 -0.62168,23.54791 -0.31806,1.45521 -0.72445,4.30731 -0.9031,6.33799 -0.24502,2.78516 -0.43381,3.80116 -0.76853,4.13586 -0.61114,0.61116 -7.97439,0.72438 -60.10763,0.92419 l -42.006496,0.161 z M 247.42321,199.37801 c -1.33654,-0.52451 -7.66189,-4.87611 -7.6503,-5.26313 0.007,-0.21828 0.90522,-1.11125 1.9971,-1.98437 4.76393,-3.80953 9.08117,-9.85882 11.21246,-15.71085 0.40386,-1.10893 0.89914,-2.04963 1.10056,-2.09045 0.20146,-0.0408 1.90609,0.97184 3.78807,2.25035 4.29715,2.91922 5.03399,3.91654 5.02325,6.79895 -0.009,2.30823 -0.0151,2.32057 -4.50464,8.752 -3.76849,5.3983 -4.72765,6.49053 -6.26165,7.13034 -1.09059,0.45487 -3.67999,0.51936 -4.70485,0.11716 z m -22.79692,-8.14234 c -12.97297,-7.83184 -31.59299,-19.37237 -31.82853,-19.72707 -0.18858,-0.28398 -0.053,-0.53018 0.52917,-0.96055 0.4305,-0.31828 2.32948,-2.2004 4.21994,-4.18249 1.89046,-1.98209 4.15193,-4.25865 5.02549,-5.05901 0.87355,-0.80036 3.73212,-3.55226 6.35238,-6.11532 5.97267,-5.84231 13.33678,-12.6701 13.66534,-12.6701 0.33885,0 12.69878,9.92708 23.28431,18.70119 5.60229,4.6436 5.78535,4.87595 5.77824,7.33361 -0.0228,7.82886 -10.2043,22.27564 -17.94217,25.45827 -2.61607,1.07601 -2.78486,1.02438 -9.08417,-2.77853 z m -39.90933,-20.99066 c -0.6705,-0.21541 -2.4958,-1.89867 -6.61458,-6.09987 -6.79048,-6.92635 -7.14375,-7.39384 -7.14375,-9.45351 0,-0.82951 0.14067,-1.91173 0.3126,-2.40493 0.31251,-0.89647 37.80548,-46.13407 40.08012,-48.35916 1.16222,-1.13691 1.20481,-1.15332 2.71046,-1.04441 3.05095,0.22069 3.89053,0.85629 12.13888,9.18964 4.11662,4.15905 7.79481,8.07764 8.17374,8.70798 0.8636,1.43661 0.92367,3.36778 0.15852,5.09752 -0.42836,0.96838 -4.71481,5.24358 -22.27479,22.21631 -12.70087,12.27613 -22.21012,21.26706 -22.86424,21.618 -1.32791,0.71243 -3.38703,0.94684 -4.67696,0.53243 z m -23.01875,-20.21123 c -0.21828,-0.0817 -2.54,-1.20229 -5.15937,-2.49013 -2.61938,-1.28784 -7.20404,-3.517 -10.18813,-4.9537 -4.58884,-2.2093 -5.57807,-2.79027 -6.41403,-3.7669 -2.16359,-2.52766 -2.78986,-6.67895 -1.44934,-9.60703 0.73276,-1.60055 36.21558,-52.563268 37.8165,-54.314492 2.65806,-2.907623 7.1513,-3.700423 10.95208,-1.932419 0.99229,0.461584 3.42236,2.710823 10.33075,9.561994 9.8228,9.74145 10.18608,10.20374 10.5673,13.447347 0.19828,1.687049 -0.37847,4.31586 -1.25971,5.74175 -0.8017,1.29717 -34.38141,43.82434 -35.9015,45.4676 -1.90954,2.06427 -3.60042,2.82106 -6.51642,2.91658 -1.30969,0.0429 -2.55985,0.0111 -2.77813,-0.0706 z m -40.21666,-13.17167 c -5.25838,-2.20268 -14.61234,-7.77579 -20.50521,-12.21706 -2.596375,-1.9568 -3.491325,-2.969 -3.864375,-4.37066 -0.284191,-1.0678 -0.262326,-1.33599 0.183354,-2.24896 1.010965,-2.07096 4.046221,-2.82599 5.583891,-1.389 0.36313,0.33934 1.11418,1.3909 1.669,2.33679 1.74471,2.97444 2.54975,3.43958 5.95306,3.43958 2.96262,0 4.089,-0.25782 18.52705,-4.24075 6.84287,-1.88769 12.57489,-3.43217 12.73784,-3.43217 0.48811,0 0.58255,0.6397 0.21687,1.46907 -0.18913,0.42894 -3.52679,4.47083 -7.41703,8.98198 -3.89024,4.51114 -7.55796,8.85622 -8.15049,9.65573 -2.12578,2.86832 -2.51671,3.02801 -4.93396,2.01545 z m 24.08828,-28.80295 c -1.06439,-2.4516 -0.93363,-5.31284 0.52252,-11.434032 1.68287,-7.074257 1.64457,-7.790066 -0.52098,-9.737079 -1.6978,-1.526468 -3.62269,-2.519577 -9.36314,-4.830722 -8.15328,-3.282567 -10.28825,-4.288052 -11.22095,-5.284634 -1.51452,-1.618242 -1.19056,-2.782433 2.26391,-8.135528 1.1507,-1.78314 5.09881,-8.285247 8.77358,-14.449128 4.17886,-7.009432 7.07589,-11.589909 7.73465,-12.229213 2.24812,-2.181723 5.78739,-3.117612 8.93467,-2.362595 0.96837,0.23231 4.54391,2.229125 12.12289,6.770214 5.91219,3.542398 11.23627,6.847673 11.8313,7.345053 0.59502,0.49738 1.48693,1.662787 1.98201,2.589794 0.77493,1.451031 0.91496,1.998287 1.00666,3.934429 0.0841,1.77637 -0.001,2.53153 -0.40717,3.593666 -0.28253,0.739589 -3.8706,6.93476 -7.97349,13.767051 -7.28509,12.131402 -7.53062,12.499599 -10.48362,15.720917 -1.6631,1.814216 -3.81453,4.409392 -4.78094,5.767059 -2.28919,3.215968 -5.6297,7.369468 -6.7603,8.405588 -2.23942,2.05228 -2.96847,2.16561 -3.6616,0.56916 z M 42.88982,78.883224 c -3.705015,-2.258664 -6.773232,-4.214649 -6.818259,-4.346636 -0.04502,-0.131985 0.83262,-1.230784 1.950326,-2.441776 12.286453,-13.311918 24.658697,-30.537491 32.519597,-45.276246 0.981784,-1.84079 1.658192,-2.82943 1.900732,-2.778124 0.618961,0.130934 19.670582,15.84594 19.670582,16.225564 0,0.192471 -0.297656,0.703691 -0.661458,1.136044 -0.363802,0.432356 -0.661458,0.899282 -0.661458,1.037614 0,0.524788 -2.134666,3.52207 -4.027482,5.654979 -4.258561,4.798743 -5.033063,6.213441 -4.941819,9.026692 0.03202,0.987202 -0.0065,1.859618 -0.08557,1.938697 -0.07908,0.07908 -0.868299,-0.100288 -1.753817,-0.398597 -5.342294,-1.799691 -11.398511,0.907362 -16.84027,7.527385 -3.018139,3.671633 -7.48161,9.500729 -10.28184,13.427627 -1.324393,1.857262 -2.591478,3.373438 -2.819218,3.373438 -0.227507,0 -3.445031,-1.847998 -7.150047,-4.106661 z M 13.266969,72.904754 C 9.9399842,72.571559 6.0360917,71.742784 2.7391163,70.669747 -1.7192,69.218741 -1.6534669,69.531145 1.7590732,66.011869 28.303522,38.637181 48.279557,10.084377 53.393887,-7.7925055 c 0.543174,-1.8986442 0.857919,-2.6056735 1.136555,-2.5531145 0.541993,0.102238 3.211538,3.332147 5.087397,6.1552982 2.002118,3.0131655 4.411014,7.9264985 5.63522,11.4939337 1.052811,3.0679791 2.136386,8.0856161 2.405192,11.1375641 0.173241,1.966909 0.160356,2.024417 -0.948428,4.233333 -7.304111,14.551226 -21.445666,34.274439 -33.500749,46.72346 l -2.082731,2.15079 -2.910417,0.552979 c -5.528492,1.050415 -10.052261,1.293419 -14.948957,0.803016 z m 99.046691,-0.603943 c -1.03231,-0.494721 -5.97005,-2.659949 -10.97275,-4.81162 -12.600221,-5.419378 -16.901028,-8.115842 -16.901028,-10.596382 0,-0.926108 1.128302,-2.74139 3.380692,-5.439063 1.530972,-1.833637 4.890741,-6.808441 9.980766,-14.778495 4.2201,-6.607916 8.1853,-12.532522 8.81155,-13.165789 2.29935,-2.325118 6.29161,-3.312919 9.34844,-2.313077 2.00079,0.654423 20.52138,12.518554 22.26664,14.263817 2.17824,2.17823 2.5054,4.061018 1.16825,6.723205 -1.34734,2.682497 -17.54263,27.731272 -18.65309,28.850182 -2.3916,2.409804 -5.17286,2.827914 -8.42947,1.267222 z M -10.413239,64.171848 c -8.470263,-5.743765 -15.408478,-15.051952 -18.738136,-25.13875 -7.886594,-23.891499 3.160436,-49.8639 25.8097236,-60.680613 9.9009434,-4.728434 20.8614824,-6.05438 31.6516454,-3.829043 5.628626,1.160835 12.368066,3.950473 16.971557,7.024994 3.401369,2.271662 4.497916,3.24339 4.497916,3.985918 0,0.352627 -0.429834,1.796801 -0.955188,3.209274 C 43.725446,2.4524396 27.443033,27.06529 10.194183,47.137725 3.7041284,54.690179 -7.1201947,65.273528 -8.3361961,65.255573 c -0.2692484,-0.004 -1.2039176,-0.491651 -2.0770429,-1.083725 z"
         id="path3732"
         inkscape:connector-curvature="0" />
      <path
         style="fill:#18191a;stroke-width:0.26458332;fill-opacity:1"
         d="m 81.925319,311.14975 c -0.739804,-1.7706 -0.995936,-4.74941 -0.826669,-9.61404 0.349493,-10.04416 2.887461,-27.93071 8.416927,-59.31894 2.421726,-13.74705 2.658023,-15.37018 2.37509,-16.31453 -0.433054,-1.44541 -2.686094,-4.80666 -8.626479,-12.86965 -8.892704,-12.07021 -11.320372,-15.65187 -16.704095,-24.64435 -5.629619,-9.40321 -9.718061,-15.24325 -21.274452,-30.38898 -10.086268,-13.219 -13.695105,-18.37665 -15.779088,-22.55101 -0.940025,-1.88294 -1.025162,-2.23269 -1.015539,-4.17191 0.0092,-1.85784 0.148007,-2.46148 1.135014,-4.93657 4.070951,-10.20859 17.111837,-33.248636 23.862553,-42.15926 1.102469,-1.455208 3.328847,-4.610365 4.947505,-7.011458 3.157817,-4.684263 8.02787,-10.455407 10.55635,-12.509566 2.249025,-1.827128 5.417399,-3.365434 6.931618,-3.365434 2.10462,0 5.493323,1.226 8.561077,3.097316 2.653543,1.618649 3.570028,1.901729 3.22218,0.995251 -0.09046,-0.235731 0.0079,-0.3884 0.250201,-0.3884 1.264716,0 25.022578,9.783585 37.889658,15.603121 5.69212,2.574433 14.20263,6.820064 16.06005,8.011856 1.27306,0.816845 1.55617,1.144582 1.8174,2.103901 0.59659,2.190876 -0.20151,9.358303 -1.50157,13.484863 -1.52943,4.85464 -2.57444,6.00322 -7.19308,7.90602 -10.03852,4.13571 -18.98489,6.276 -25.19156,6.0267 l -2.67014,-0.10724 -4.44909,-4.62034 c -6.270308,-6.51165 -12.679977,-12.1509 -13.81922,-12.15818 -0.91936,-0.006 -0.992864,1.55714 -0.194529,4.13653 0.442579,1.42996 0.532495,2.2385 0.424889,3.82063 -0.279294,4.1064 -2.653681,9.1961 -5.881063,12.60656 -1.749745,1.84901 -1.949077,1.97895 -3.607453,2.35162 -2.079432,0.46728 -2.710588,0.85421 -2.459731,1.50794 0.30375,0.79156 2.120506,1.50304 5.49126,2.15049 3.720859,0.7147 5.54804,1.39853 8.680421,3.24869 1.625719,0.96024 3.512709,1.73084 6.869414,2.80529 7.605722,2.43453 8.136522,2.75132 11.308182,6.74903 9.55859,12.04807 38.69535,55.19201 42.88938,63.50799 0.77757,1.54179 0.82066,1.75407 0.50884,2.50689 -1.39234,3.36139 -12.84909,11.35936 -18.08657,12.62625 -1.75736,0.42509 -2.00362,0.69095 -1.22746,1.32517 0.56781,0.46395 1.09733,0.51214 5.82084,0.5297 5.77768,0.0215 7.79778,0.2199 8.40329,0.82541 0.28226,0.28226 0.48647,1.33442 0.6637,3.41951 0.1408,1.65649 0.4245,3.66725 0.63045,4.46834 0.49103,1.91 1.82086,9.91084 2.50645,15.07992 0.95631,7.21019 1.3502,12.16176 1.16894,14.6947 -0.14038,1.96172 -0.0718,2.77465 0.38135,4.52299 0.64094,2.47264 1.32672,9.98945 1.46529,16.06095 0.0775,3.39442 0.17584,4.27033 0.51805,4.61251 0.38684,0.38685 0.46513,0.38378 0.92946,-0.0364 0.27887,-0.25236 0.57835,-0.81545 0.66552,-1.2513 0.0872,-0.43582 -0.0727,-5.63872 -0.35525,-11.562 -0.84687,-17.75296 -1.12959,-27.56074 -1.01975,-35.37579 0.11614,-8.26266 0.13688,-8.36541 1.99933,-9.90555 0.54874,-0.45377 1.47396,-0.9493 2.05604,-1.10117 0.58209,-0.15188 1.41552,-0.45739 1.85209,-0.67892 1.4116,-0.71631 4.8758,-3.38135 5.04498,-3.88114 0.21442,-0.63348 -0.64822,-1.54602 -2.39152,-2.52988 -1.71892,-0.9701 -3.99447,-3.4215 -5.09649,-5.49034 -0.47054,-0.88335 -1.25837,-2.72421 -1.75072,-4.0908 -0.49236,-1.36659 -1.36877,-3.6158 -1.94758,-4.99824 -0.5788,-1.38245 -1.85754,-4.77573 -2.84163,-7.54063 -0.9841,-2.76489 -2.56748,-6.93208 -3.51862,-9.26042 -0.95115,-2.32833 -2.18645,-5.41378 -2.74512,-6.85655 -0.62178,-1.60574 -1.41024,-3.09382 -2.03276,-3.83646 -3.91917,-4.67539 -14.52944,-17.62653 -18.76836,-22.90907 -7.18261,-8.95099 -7.69163,-10.10906 -4.39769,-10.00527 3.03564,0.0957 24.47953,4.65104 30.78822,6.54042 1.67349,0.5012 4.1738,1.17142 5.55625,1.4894 3.08492,0.70957 5.23492,1.5583 7.14375,2.82009 0.80036,0.52906 3.83645,3.24625 6.74687,6.0382 6.99082,6.70627 9.25257,8.74214 10.86548,9.78036 1.34033,0.86277 2.00846,1.57339 3.11474,3.31284 0.76341,1.20035 1.70112,1.33388 2.90716,0.41399 0.48931,-0.37321 1.06337,-0.67857 1.27569,-0.67857 0.42369,0 3.66924,1.97322 14.97599,9.10506 5.66304,3.57201 7.47448,4.84086 7.47448,5.23562 0,0.7471 -2.22189,10.54958 -3.34639,14.76349 -1.49865,5.61601 -2.16121,6.82887 -5.82588,10.66466 -2.21622,2.31972 -3.47151,3.88795 -4.29694,5.36818 -2.09918,3.76443 -4.02223,6.53485 -6.24239,8.99305 -3.369,3.73019 -3.46894,3.96111 -3.94059,9.10536 -1.24447,13.57333 -1.50287,20.58844 -1.32545,35.98333 0.18356,15.92733 -0.11547,25.13684 -0.94501,29.10416 -0.28906,1.38245 -0.60701,3.93759 -0.70657,5.67807 -0.2742,4.7939 1.59227,4.28056 -16.2552,4.4709 -8.20987,0.0875 -31.02587,0.22773 -50.70223,0.31149 l -35.775182,0.15235 z M 247.76817,199.37881 c -0.97689,-0.28255 -8.01788,-4.87426 -8.01788,-5.22878 0,-0.13031 0.44649,-0.5716 0.99219,-0.98065 2.76791,-2.07477 6.97569,-6.71849 9.11442,-10.05866 1.12853,-1.7625 2.74039,-5.13748 3.37727,-7.07141 0.41542,-1.26146 0.70181,-1.76233 0.95263,-1.66608 1.26762,0.48643 6.85128,4.56761 7.52883,5.50292 1.64486,2.2707 1.67629,4.55499 0.0968,7.03494 -2.4144,3.79075 -7.59767,10.93432 -8.29304,11.42947 -1.67659,1.19384 -3.85416,1.58695 -5.7512,1.03825 z m -17.37839,-4.92443 c -0.54991,-0.1403 -5.24501,-2.97715 -24.10928,-14.56724 -6.985,-4.29154 -12.89388,-7.97097 -13.13086,-8.17651 -0.38624,-0.33502 0.3809,-1.18458 7.40834,-8.20439 9.10244,-9.09256 21.29116,-20.55204 21.98404,-20.66875 0.71581,-0.12057 27.52972,21.65196 28.50971,23.14951 0.35639,0.5446 0.46561,1.21234 0.44439,2.71715 -0.084,5.9666 -6.05792,16.16305 -12.86642,21.96095 -3.10647,2.64538 -6.53806,4.22346 -8.23992,3.78928 z m -46.07537,-24.52103 c -1.07401,-0.46796 -12.30908,-12.09426 -12.88582,-13.33454 -0.59305,-1.27535 -0.58192,-3.09263 0.0271,-4.42038 0.26699,-0.58209 9.36927,-11.71443 20.2273,-24.73855 14.48913,-17.37959 20.00297,-23.81527 20.72318,-24.18783 0.8682,-0.44911 1.14887,-0.47248 2.43501,-0.20271 0.79953,0.16771 2.10145,0.69379 2.89314,1.16909 1.92029,1.15284 16.08324,15.52262 16.75901,17.00375 0.71512,1.5674 0.63429,3.25234 -0.23312,4.85979 -0.56118,1.03996 -5.68493,6.12958 -22.40279,22.25363 -14.09497,13.59433 -22.0586,21.0909 -22.77155,21.43604 -1.27245,0.61598 -3.55156,0.69323 -4.77144,0.16171 z m -22.21932,-19.90523 c -0.29104,-0.0745 -2.55323,-1.12887 -5.02709,-2.34304 -2.47385,-1.21417 -7.17682,-3.51664 -10.45104,-5.11659 -5.732,-2.80095 -5.99012,-2.96048 -6.94917,-4.295 -1.95426,-2.71935 -2.34297,-6.61618 -0.93621,-9.38562 0.92032,-1.81182 36.43681,-52.634486 37.77176,-54.049877 0.59159,-0.627237 1.75894,-1.460674 2.5941,-1.852083 1.31434,-0.615977 1.85639,-0.71165 4.03202,-0.71165 3.89561,0 3.94764,0.03745 14.37606,10.347626 10.44176,10.32337 10.36197,10.213576 10.36228,14.258624 1.6e-4,2.125498 -0.10833,2.879984 -0.55168,3.83646 -0.52188,1.12591 -34.54818,44.50701 -36.58838,46.64757 -1.50341,1.57737 -3.89808,2.62995 -6.19323,2.72223 -1.05064,0.0422 -2.14838,0.0159 -2.43942,-0.0587 z m -40.34896,-13.16614 c -8.01891,-3.35976 -22.937675,-12.99727 -24.183418,-15.62247 -0.501576,-1.057 -0.54578,-2.50072 -0.106108,-3.46569 0.675317,-1.48216 3.969856,-2.27039 5.216166,-1.248 0.31044,0.25466 1.1273,1.40307 1.81525,2.55202 1.48314,2.47699 2.07609,2.96822 4.09186,3.38987 2.61472,0.54694 5.31941,0.001 19.77885,-3.99114 7.34771,-2.02873 13.44966,-3.63287 13.55989,-3.56474 0.80854,0.4997 -5.2e-4,1.60222 -7.73625,10.54368 -2.64389,3.05594 -5.6009,6.56018 -6.57113,7.7872 -2.26135,2.85984 -3.59257,4.25423 -4.04804,4.24016 -0.19903,-0.006 -1.01671,-0.28555 -1.81707,-0.62089 z m 24.3776,-28.03192 c -0.62409,-0.75199 -1.09427,-2.70494 -1.09427,-4.54525 0,-2.09986 0.46525,-4.900241 1.49345,-8.989202 0.90603,-3.603096 1.07929,-5.87629 0.529,-6.940431 -0.9821,-1.899179 -3.94679,-3.66083 -10.7537,-6.389968 -5.74916,-2.305047 -9.74869,-4.054639 -10.7126,-4.686215 -0.40517,-0.26548 -0.89594,-0.863857 -1.09059,-1.32973 -0.50994,-1.220451 0.0698,-2.941161 1.96545,-5.833451 0.84332,-1.286708 4.84898,-7.866171 8.90149,-14.621025 4.05249,-6.754858 7.76009,-12.715354 8.23909,-13.245553 1.21636,-1.346371 3.14233,-2.320943 5.28898,-2.676318 3.26,-0.539692 3.74988,-0.328068 15.73894,6.799127 6.09114,3.621022 11.225,6.855415 12.01383,7.568846 2.51522,2.2748 3.6136,6.06271 2.68463,9.258262 -0.2792,0.960425 -3.04501,5.836063 -7.97859,14.064859 -7.27196,12.129026 -7.65358,12.705124 -10.3182,15.576507 -1.52182,1.639911 -4.16521,4.886658 -5.87421,7.214992 -3.21138,4.37519 -6.5264,8.10072 -7.78914,8.7537 -0.8848,0.45755 -0.88118,0.45749 -1.24356,0.0209 z M 43.033452,78.869492 c -3.637547,-2.24209 -6.654323,-4.198329 -6.703946,-4.347197 -0.04962,-0.148865 1.265674,-1.787136 2.922876,-3.640601 8.979651,-10.043096 14.582782,-17.261876 21.509412,-27.7116 3.974044,-5.995363 7.174701,-11.277687 9.898136,-16.335769 0.763278,-1.417587 1.484614,-2.637282 1.602968,-2.710429 0.118356,-0.07315 3.891134,2.872635 8.383955,6.546184 4.492818,3.673549 8.910184,7.274493 9.816366,8.002097 1.738635,1.396008 1.906969,1.705968 1.231114,2.266876 -0.230155,0.191014 -0.759692,1.023266 -1.17675,1.849448 -0.763603,1.512695 -1.973683,3.092884 -5.458356,7.127841 -2.642063,3.059284 -3.39747,4.633084 -3.39747,7.078231 0,2.10357 -0.01876,2.121511 -1.625716,1.554546 -4.703675,-1.659554 -10.159002,0.336256 -15.213216,5.565695 -1.78418,1.846038 -6.404898,7.708506 -10.393441,13.186529 -1.589304,2.182813 -3.172701,4.355703 -3.518662,4.828646 -0.345958,0.472943 -0.771787,0.850027 -0.946282,0.837965 -0.174496,-0.01207 -3.293441,-1.85637 -6.930988,-4.098462 z m 70.907468,-6.040176 c -0.58208,-0.18457 -1.53458,-0.57912 -2.11666,-0.876771 -0.58209,-0.297653 -5.28506,-2.359662 -10.45105,-4.582242 -9.630402,-4.143316 -13.059376,-5.956895 -15.411974,-8.151365 -1.110721,-1.036066 -1.256771,-1.300435 -1.256771,-2.274916 0,-1.339636 0.718244,-2.535973 3.47331,-5.785297 1.19181,-1.405621 5.014164,-7.074324 9.633926,-14.2875 4.212039,-6.57656 8.101129,-12.441986 8.642429,-13.03428 2.48533,-2.719464 6.65403,-3.661304 10.12272,-2.287042 2.06599,0.818523 20.0431,12.534593 21.59201,14.071975 2.2707,2.253808 2.49614,3.885626 0.94665,6.852446 -0.45811,0.877139 -4.46433,7.281905 -8.90271,14.232816 -8.71946,13.655455 -9.94253,15.253454 -12.28411,16.049747 -1.52328,0.518017 -2.52514,0.536212 -3.98777,0.07243 z M 11.944052,72.664288 C 9.0977308,72.270297 5.0904312,71.346546 2.5580169,70.500644 -0.18239691,69.585265 -0.82118836,69.285977 -0.7058803,68.971437 -0.66065507,68.848081 1.6544596,66.326062 4.4388207,63.366956 30.577346,35.587985 47.623909,10.957598 53.355165,-7.3117253 c 0.538567,-1.716772 1.081733,-3.0859907 1.207034,-3.0427087 0.473253,0.163474 3.005603,3.3617409 4.880674,6.1641122 4.371035,6.5327 7.196113,14.3202998 8.058025,22.2127438 l 0.25871,2.368997 -1.963235,3.77031 c -6.73862,12.941226 -17.95564,28.882207 -28.921156,41.101073 -5.638347,6.282806 -5.27427,6.006825 -8.95084,6.784964 -2.654173,0.56175 -4.01969,0.681046 -8.704284,0.760426 -3.055937,0.05178 -6.330156,-0.01297 -7.276041,-0.143904 z m -22.508616,-8.752345 c -12.311962,-8.462508 -20.323655,-23.188716 -21.053558,-38.69832 -0.528253,-11.224789 3.439304,-23.3907727 10.632254,-32.6023849 7.331741,-9.3893551 17.5825475,-15.6164731 29.8872118,-18.1557641 3.6226322,-0.747597 4.4187002,-0.820088 9.1281242,-0.831219 4.595072,-0.01086 5.561452,0.06754 8.835528,0.716794 4.648194,0.921745 9.184139,2.407149 12.955777,4.242679 3.246895,1.580157 8.068196,4.673053 9.279702,5.952992 l 0.776216,0.820059 -0.47847,1.522283 C 44.784494,1.5579389 23.43431,33.011864 3.7997117,54.056579 -0.75292321,58.936173 -7.6081784,65.262802 -8.3428556,65.262802 c -0.1410018,0 -1.1407703,-0.607886 -2.2217084,-1.350859 z"
         id="path3730"
         inkscape:connector-curvature="0" />
      <path
         style="fill:#18191a;stroke-width:0.26458332;fill-opacity:1"
         d="m 82.312804,311.84243 c -0.212556,-0.13444 -0.303241,-0.24628 -0.201528,-0.2485 0.101717,-0.003 0.0024,-0.44088 -0.220665,-0.97481 -0.933765,-2.2348 -0.914244,-10.18804 0.046,-18.7407 0.524288,-4.66973 1.695865,-13.09134 3.05504,-21.96041 1.59045,-10.37826 2.028357,-12.954 6.194542,-36.43629 0.809519,-4.56278 1.094761,-6.76594 0.94403,-7.2915 -0.531725,-1.85402 -2.092452,-4.19178 -9.354364,-14.0116 C 74.966008,201.61786 71.521548,196.50841 66.317684,187.76488 61.609649,179.85444 56.240319,172.14293 47.25064,160.38051 34.131438,143.21486 30.544558,138.01429 28.990206,133.9049 c -0.857914,-2.26813 -0.777468,-3.28183 0.547285,-6.89626 3.107224,-8.47769 17.332139,-33.938511 23.410623,-41.902089 0.944129,-1.236927 3.162557,-4.3714 4.929838,-6.965497 5.597602,-8.216408 10.471999,-13.466651 14.347364,-15.453635 3.009937,-1.543259 3.575402,-1.605936 6.675993,-0.739989 1.996498,0.557588 3.224437,1.115629 5.318585,2.417045 2.878762,1.789015 3.659571,2.038348 3.659571,1.168599 0,-0.506283 0.06301,-0.500819 1.918229,0.16638 10.364056,3.727273 34.736416,14.194816 45.442186,19.516709 5.53889,2.753405 7.76032,4.09203 8.22188,4.95446 0.47861,0.894287 0.13592,7.683712 -0.55144,10.925187 -0.69422,3.2739 -1.84313,6.25484 -3.03435,7.87286 -1.03292,1.40303 -2.55864,2.221 -7.95486,4.26481 -8.8218,3.34124 -17.90219,5.25878 -22.75098,4.80441 l -1.90143,-0.17818 -5.92431,-5.94921 c -5.750006,-5.77419 -9.926469,-9.51831 -11.672375,-10.46407 -0.729094,-0.39495 -0.904428,-0.40806 -1.221182,-0.0913 -0.502166,0.50217 -0.440955,2.27329 0.136194,3.94061 1.29168,3.73152 -0.226859,9.51272 -3.8458,14.64125 -1.712177,2.42639 -3.251446,3.68962 -4.942279,4.05597 -1.952361,0.42301 -2.767399,0.81217 -2.767399,1.32136 0,1.11113 1.663851,1.87023 5.817468,2.65411 3.535468,0.66721 5.195405,1.29573 8.386592,3.17546 1.44747,0.85262 3.436631,1.72111 5.242814,2.28907 8.804667,2.76862 9.649217,3.21072 12.268117,6.42197 9.09216,11.14864 41.45787,59.07726 43.93862,65.06631 0.55246,1.33376 0.1476,2.12317 -2.3282,4.53949 -4.7222,4.60874 -11.82337,8.86939 -16.50614,9.90356 -0.4894,0.10808 -0.72761,0.32923 -0.72761,0.6755 0,1.02122 0.89759,1.17664 7.63044,1.32121 7.55676,0.16225 7.29903,0.056 7.56326,3.11864 0.21315,2.47063 0.57245,4.88297 1.0616,7.1275 1.50077,6.8865 3.08217,19.70077 3.29124,26.66921 0.0961,3.20146 0.26308,5.96045 0.37118,6.13111 0.58972,0.93091 1.51226,11.16928 1.51308,16.79218 2.7e-4,2.65575 0.0711,3.1655 0.5135,3.70416 l 0.51305,0.62463 0.5938,-0.58504 c 0.84256,-0.83011 0.88593,-2.19882 0.39671,-12.51951 -0.88814,-18.73641 -1.02394,-22.91709 -1.05252,-32.40378 -0.0214,-7.09917 0.0606,-10.08973 0.29846,-10.88174 0.38098,-1.2688 2.27834,-3.16748 3.41817,-3.42056 1.79885,-0.39939 2.46965,-0.74892 4.71292,-2.45577 2.03193,-1.54604 2.38032,-1.92321 2.38032,-2.57691 0,-0.66666 -0.29111,-0.96043 -2.24896,-2.26948 -3.39462,-2.26971 -5.48025,-5.16812 -6.82454,-9.48408 -0.29461,-0.94589 -0.90995,-2.54855 -1.36742,-3.56148 -0.45748,-1.01293 -2.06906,-5.24348 -3.58131,-9.40123 -1.51225,-4.15774 -3.18443,-8.56773 -3.71596,-9.79997 -0.53152,-1.23225 -1.54008,-3.69316 -2.24125,-5.46869 l -1.27484,-3.22825 -6.95998,-8.41342 c -9.89023,-11.95559 -17.92758,-22.00777 -18.51259,-23.1534 -0.60634,-1.18739 -0.64631,-2.21337 -0.0945,-2.42513 1.12238,-0.4307 24.51625,4.42005 31.74008,6.58134 1.60073,0.47892 3.80339,1.0662 4.89479,1.30506 5.38718,1.17904 7.8879,2.46335 11.37708,5.84296 6.23237,6.03665 12.69582,11.92117 14.32712,13.04385 1.23349,0.8489 2.07566,1.68856 2.74084,2.73268 1.34021,2.1037 1.95346,2.28797 3.39683,1.02068 0.49721,-0.43656 1.01817,-0.79375 1.15766,-0.79375 0.41788,0 21.46288,13.12547 22.25021,13.87714 0.6519,0.62238 -3.59326,18.0519 -5.14074,21.10654 -0.40418,0.79781 -1.80087,2.53085 -3.25783,4.04236 -3.15886,3.27713 -3.73256,4.03281 -5.82514,7.67292 -2.08166,3.6211 -3.07014,4.99169 -5.53323,7.67214 -3.38551,3.68427 -3.34841,3.56167 -4.12383,13.62682 -0.86615,11.24293 -0.99903,15.84012 -1.04389,36.11562 -0.0458,20.71505 -0.0516,20.92576 -0.64867,23.54792 -0.33133,1.4552 -0.70111,4.13411 -0.82174,5.95312 -0.23649,3.56611 -0.3609,4.10636 -1.00232,4.3525 -1.27907,0.49083 -100.92648,1.14012 -101.681506,0.66255 z M 247.25501,199.02481 c -1.11688,-0.48602 -7.24013,-4.60117 -7.24013,-4.86576 0,-0.11548 1.00427,-1.06068 2.23176,-2.10045 2.64136,-2.23744 5.23155,-5.18021 7.21484,-8.19694 1.5295,-2.32648 3.52295,-6.34736 4.06609,-8.20146 0.18116,-0.61847 0.46029,-1.12448 0.62026,-1.12448 0.41365,0 5.40457,3.34332 6.46724,4.33228 1.65788,1.54286 2.26941,2.76784 2.26213,4.53126 -0.008,1.87835 0.0204,1.82643 -4.56964,8.46666 -3.79736,5.49366 -4.53874,6.36481 -5.98956,7.03796 -1.26381,0.58638 -3.85133,0.64819 -5.06299,0.12093 z m -22.49627,-7.98095 c -4.83518,-2.92514 -30.5716,-18.7398 -31.54368,-19.38314 -0.27645,-0.18295 1.68868,-2.28842 8.06979,-8.64606 8.06005,-8.03041 20.51703,-19.87503 21.18856,-20.14698 0.32733,-0.13255 0.89932,0.31292 12.77897,9.95227 11.26058,9.13705 15.18284,12.43965 15.67515,13.19877 0.63479,0.97875 0.60418,3.64491 -0.0704,6.14106 -0.71351,2.63989 -3.29729,7.74233 -5.49053,10.8426 -1.97998,2.79881 -6.89089,7.90588 -8.91715,9.27333 -1.74389,1.1769 -4.01055,2.08971 -5.20837,2.09747 -0.77817,0.005 -2.0528,-0.6496 -6.48229,-3.32932 z m -40.01696,-21.0832 c -0.62951,-0.20096 -2.26921,-1.68855 -5.43842,-4.93393 -7.89084,-8.08045 -7.89899,-8.09035 -8.17923,-9.93789 -0.36101,-2.37995 -0.60472,-2.05487 20.66987,-27.57055 10.94469,-13.12651 20.15711,-24.00429 20.47206,-24.17285 0.90106,-0.48223 3.17769,-0.16012 4.89817,0.69301 1.27467,0.63207 2.87426,2.10835 8.96002,8.26935 4.07458,4.12496 7.70173,7.98973 8.06035,8.58839 0.85389,1.42548 0.87524,3.30291 0.0568,4.99191 -0.43217,0.8919 -2.37874,2.9484 -7.1375,7.54063 -3.59879,3.47285 -13.46223,12.99532 -21.91874,21.16104 -13.4078,12.94674 -15.53809,14.90217 -16.64605,15.27969 -1.43027,0.48734 -2.4776,0.5125 -3.79731,0.0912 z m -22.32174,-20.03874 c -0.6944,-0.11815 -2.05524,-0.65055 -3.0241,-1.1831 -0.96886,-0.53255 -5.46087,-2.74198 -9.98225,-4.90986 -7.10449,-3.4064 -8.35577,-4.09508 -9.21556,-5.0721 -2.16892,-2.46462 -2.80843,-6.56535 -1.4773,-9.47293 0.70378,-1.53725 36.48466,-52.971472 37.8446,-54.400772 1.86724,-1.962471 5.23782,-3.011456 8.03032,-2.499175 0.86703,0.159054 2.08367,0.556625 2.70365,0.883486 0.65637,0.346048 4.8237,4.218146 9.97654,9.269767 7.67255,7.521818 8.95642,8.893995 9.65466,10.318749 1.45614,2.971242 1.29506,6.371582 -0.427,9.013955 -1.0888,1.67067 -34.44385,43.84757 -35.77515,45.23707 -1.78472,1.86274 -3.24679,2.53692 -6.3844,2.94392 -0.36381,0.0472 -1.22961,-0.0109 -1.92401,-0.12901 z m -40.93849,-13.32439 c -5.48352,-2.29699 -16.1536,-8.74296 -21.509338,-12.99414 -2.468872,-1.9597 -3.301794,-3.85122 -2.466856,-5.6021 0.852228,-1.78714 3.975314,-2.47779 5.284474,-1.16863 0.28722,0.28721 1.08428,1.45076 1.77124,2.58567 1.66186,2.74546 2.58097,3.25905 5.8323,3.25905 3.08417,0 4.12104,-0.23689 18.71399,-4.27554 7.58175,-2.09827 12.61621,-3.36951 12.76297,-3.22276 0.45162,0.45162 -0.6392,1.89047 -7.43699,9.80982 -3.71782,4.33122 -7.22374,8.47025 -7.79094,9.19786 -1.7216,2.20845 -2.5924,3.04325 -3.16224,3.03152 -0.29887,-0.006 -1.19825,-0.28549 -1.99861,-0.62075 z m 24.16511,-28.93525 c -0.8147,-2.11152 -0.61882,-5.42885 0.64442,-10.914062 1.49878,-6.507967 1.54042,-6.918597 0.84684,-8.35134 -0.40185,-0.830106 -1.06001,-1.5293 -2.20078,-2.337977 -2.13815,-1.515724 -3.41484,-2.1385 -8.63893,-4.214149 -7.1294,-2.832671 -10.38733,-4.352358 -11.17864,-5.214358 -1.36003,-1.481531 -0.97327,-2.771732 2.39609,-7.993229 1.15064,-1.78314 5.08404,-8.255762 8.7409,-14.383604 7.05047,-11.814569 7.78071,-12.800973 10.31392,-13.931847 1.80622,-0.806328 5.05959,-0.934672 6.80279,-0.268364 2.00549,0.766559 22.319,13.023995 23.45668,14.154062 1.65729,1.646206 2.40723,3.429244 2.53548,6.028307 0.078,1.581187 -0.009,2.592985 -0.29227,3.407595 -0.22179,0.637251 -3.80883,6.828501 -7.9712,13.758333 -7.46197,12.423259 -7.61053,12.645699 -10.60904,15.884921 -1.6726,1.806874 -3.89339,4.485781 -4.93508,5.953125 -4.52615,6.375617 -7.58392,9.679357 -8.95869,9.679357 -0.31338,0 -0.62751,-0.41448 -0.95249,-1.25677 z M 43.292694,78.862044 c -3.490034,-2.124792 -6.492756,-4.002691 -6.672712,-4.173104 -0.256011,-0.242435 0.139946,-0.826627 1.819973,-2.685179 3.01068,-3.330604 7.669493,-8.774211 10.184683,-11.900334 7.764044,-9.649904 16.644412,-22.936898 21.792328,-32.606141 0.945885,-1.77664 1.838854,-3.231991 1.984375,-3.234116 0.145521,-0.0021 2.536822,1.869816 5.314003,4.159867 2.77718,2.290048 7.093195,5.821696 9.591145,7.848108 2.49795,2.026411 4.541726,3.801109 4.541726,3.943775 0,0.142666 -0.297656,0.64964 -0.661458,1.126609 -0.363802,0.47697 -0.661459,0.975763 -0.661459,1.108433 0,0.522655 -2.158253,3.493912 -4.28799,5.903259 -3.916225,4.430379 -4.707842,5.927132 -4.707842,8.901363 0,1.53008 -0.04989,1.694103 -0.463021,1.522431 -4.75661,-1.976554 -9.674704,-0.728205 -14.81297,3.759938 -2.212602,1.932652 -11.086761,13.137134 -14.886508,18.795659 -0.509323,0.758473 -1.106652,1.382114 -1.327399,1.385866 -0.220744,0.0038 -3.256838,-1.731642 -6.746874,-3.856434 z M 13.002385,72.662504 C 7.9440734,72.046536 -0.09346251,69.886837 -0.41144669,69.058186 -0.49306006,68.845501 0.90151894,67.201645 3.0245911,65.007963 11.423926,56.329291 21.008465,45.26751 28.479745,35.629469 41.380262,18.987654 50.203599,3.7938955 53.639793,-7.6960509 c 0.402556,-1.3460677 0.82074,-2.4473961 0.929301,-2.4473961 0.108559,0 0.870437,0.8036722 1.693064,1.7859378 6.018434,7.1863742 10.38349,17.6704833 11.141529,26.7600292 l 0.174755,2.095479 -1.900624,3.632486 c -3.93275,7.516288 -10.332881,17.571701 -16.244333,25.5219 -7.423589,9.983843 -17.226113,21.200658 -18.9686,21.705356 -4.075139,1.180335 -13.005057,1.847559 -17.4625,1.304763 z m 99.240825,-0.66004 C 111.17215,71.489175 106.2572,69.33925 101.3211,67.224854 92.474658,63.435449 89.712533,62.024559 86.7927,59.80377 c -3.001044,-2.28256 -2.783083,-3.529094 1.497433,-8.563885 1.13415,-1.334002 5.045599,-7.146668 9.614318,-14.287499 4.236249,-6.621198 8.207199,-12.56429 8.824329,-13.20687 2.22428,-2.316022 6.1671,-3.287051 9.25157,-2.278457 1.78406,0.583372 19.9499,12.216413 21.81757,13.971537 2.40328,2.25846 2.7533,4.059515 1.32423,6.813979 -1.47724,2.847313 -17.24961,27.191699 -18.39899,28.398532 -2.44231,2.564382 -5.07377,2.983728 -8.47995,1.351357 z m -122.6205,-8.072165 c -9.991646,-6.784054 -17.667116,-18.482791 -19.99992,-30.483317 -0.289988,-1.491768 -0.673835,-3.307617 -0.852994,-4.035221 -0.422889,-1.717442 -0.433128,-10.391688 -0.01437,-12.170833 0.171258,-0.727604 0.619958,-2.793495 0.997112,-4.590868 3.001733,-14.3051369 12.848631,-27.026794 26.0280101,-33.626775 4.72653761,-2.366959 8.6165898,-3.595768 15.6343339,-4.938648 8.535001,-1.633214 21.093083,0.622821 29.893905,5.370383 2.653593,1.431469 6.402979,3.917108 7.605566,5.042079 l 0.854681,0.799518 -0.629216,1.849971 C 43.566503,3.5328206 21.060535,36.194304 1.6253025,56.101395 c -4.6226199,4.734848 -9.3049374,8.900427 -9.9923484,8.889595 -0.252281,-0.004 -1.1568911,-0.481285 -2.0102441,-1.060691 z"
         id="path3728"
         inkscape:connector-curvature="0" />
      <path
         style="fill:#18191a;stroke-width:0.26458332;fill-opacity:1"
         d="m 82.041216,312.56321 c -0.06427,-0.33959 -0.146923,-0.57978 -0.461878,-1.34212 -1.34448,-3.25435 -0.874953,-13.55757 1.303248,-28.59826 2.119217,-14.63342 3.615226,-23.97681 5.815993,-36.32404 2.843644,-15.95403 3.207933,-18.23171 3.088791,-19.31236 -0.174334,-1.58126 -1.753335,-4.08337 -7.390442,-11.71098 C 74.663532,202.1051 71.171718,196.98373 66.257003,188.66998 61.06758,179.89154 56.682672,173.62788 45.072457,158.40875 34.130971,144.06621 30.744341,139.15516 28.941018,135.01607 c -1.1885,-2.72792 -1.095658,-3.97044 0.617934,-8.27014 4.037037,-10.1296 17.246258,-33.466833 23.71554,-41.899139 0.948973,-1.236927 3.046884,-4.213489 4.662022,-6.614583 3.139334,-4.666988 7.105917,-9.476404 10.011735,-12.139056 2.117087,-1.939925 5.972616,-4.000527 7.485266,-4.000527 1.782672,0 5.680119,1.430396 8.250822,3.028119 3.175941,1.97389 3.686868,2.168338 3.868856,1.472407 0.07649,-0.292476 0.281871,-0.531776 0.456417,-0.531776 0.849712,0 15.64647,5.988627 27.79905,11.250988 14.39559,6.233636 24.16291,10.982889 26.36047,12.817488 l 0.89057,0.743482 -0.0373,3.138292 c -0.0738,6.219495 -1.71955,12.644615 -4.00898,15.651585 -0.77881,1.0229 -3.4062,2.33354 -8.25585,4.1183 -8.76213,3.22465 -16.36859,4.86274 -21.37405,4.60303 l -2.45635,-0.12745 -5.74764,-5.79109 c -8.997949,-9.06601 -13.023799,-12.17155 -13.652975,-10.53194 -0.310105,0.80812 -0.155226,2.45354 0.400036,4.24996 0.447451,1.44762 0.526553,2.18136 0.391817,3.63432 -0.316199,3.40974 -2.254197,7.98232 -4.767456,11.24848 -1.575948,2.04807 -2.795008,2.92244 -4.691213,3.3648 -1.999012,0.46634 -2.606283,0.78993 -2.606283,1.38878 0,0.51286 0.823648,1.36874 1.804392,1.87501 0.337571,0.17426 2.063977,0.59587 3.836458,0.93691 3.930819,0.75632 5.401662,1.2966 8.646649,3.17613 1.875594,1.08637 3.68871,1.83086 7.14375,2.93332 6.954875,2.21922 7.920375,2.75113 10.318745,5.68475 8.25171,10.09325 38.64751,54.87963 43.3541,63.87964 1.15269,2.2042 1.09386,2.71281 -0.51774,4.47616 -3.78401,4.1403 -11.63528,9.23262 -16.37802,10.62275 -1.54729,0.45352 -2.00226,0.69941 -2.06558,1.11633 -0.17253,1.13616 0.7763,1.37788 5.49789,1.4006 5.86595,0.0282 8.61529,0.27151 9.1538,0.81001 0.30648,0.30648 0.49382,1.26136 0.66481,3.38853 0.13095,1.62898 0.40774,3.63793 0.61508,4.46433 1.58522,6.31799 3.59551,22.21145 3.5961,28.43091 2.7e-4,3.30216 0.11023,4.6011 0.52614,6.21771 0.64043,2.4893 1.32634,10.64149 1.32634,15.76377 0,3.01212 0.0837,3.87633 0.42242,4.35988 0.62128,0.88699 1.46013,0.64923 2.0626,-0.58465 0.47633,-0.97552 0.48555,-1.32906 0.18985,-7.27604 -1.18173,-23.76681 -1.6311,-41.92666 -1.14306,-46.19375 0.2664,-2.32928 0.29239,-2.39212 1.43547,-3.47214 0.78466,-0.74137 1.63859,-1.23785 2.61951,-1.52302 1.53064,-0.44497 2.58002,-1.07655 5.25411,-3.16225 1.36201,-1.06233 1.61381,-1.38396 1.54474,-1.97312 -0.0825,-0.70422 -0.47801,-1.05453 -3.65752,-3.23996 -1.46309,-1.00566 -3.30284,-3.2437 -4.21446,-5.12686 -0.3161,-0.65297 -0.97384,-2.29663 -1.46165,-3.65258 -0.48782,-1.35594 -1.48949,-3.95364 -2.22594,-5.77265 -0.73646,-1.81901 -2.12635,-5.50995 -3.08864,-8.20208 -0.96229,-2.69214 -2.58925,-6.91885 -3.61546,-9.39271 -1.02621,-2.47385 -2.13274,-5.23052 -2.45895,-6.12593 -0.50039,-1.37352 -1.67803,-2.93958 -7.53356,-10.01833 -8.73242,-10.55664 -17.47584,-21.42624 -18.32022,-22.77522 -1.60193,-2.55924 -1.1766,-2.96004 2.4982,-2.35417 7.13033,1.1756 24.41827,4.96849 28.38527,6.22759 1.30968,0.41568 3.97006,1.13152 5.91194,1.59073 5.14445,1.21657 7.10482,2.27438 10.75681,5.80437 6.68736,6.46395 12.49063,11.77019 13.76253,12.58382 1.47416,0.943 2.78848,2.3068 3.44311,3.5727 0.36496,0.70577 1.27873,1.30798 1.98466,1.30798 0.13099,0 0.64497,-0.35718 1.14219,-0.79375 0.49721,-0.43656 1.04323,-0.79375 1.21336,-0.79375 0.48861,0 21.70983,13.3001 22.06495,13.8289 0.23431,0.34889 -1.55817,8.68346 -3.17138,14.7461 -1.45736,5.47694 -2.27589,7.03764 -5.34092,10.18358 -3.04309,3.12342 -3.83815,4.13662 -5.19272,6.61746 -1.82834,3.34855 -3.72402,6.04944 -5.9425,8.46667 -3.29413,3.58924 -3.37857,3.7812 -3.84732,8.7469 -1.15431,12.22813 -1.26537,15.36058 -1.33146,37.55518 -0.0355,11.93271 -0.14901,22.41021 -0.25216,23.28334 -0.10316,0.87312 -0.42323,2.85977 -0.71127,4.41478 -0.28803,1.55501 -0.61358,4.26569 -0.72343,6.02377 -0.12038,1.92638 -0.32933,3.32608 -0.52589,3.52271 -0.251,0.25107 -5.18463,0.35412 -21.41353,0.44728 -11.59807,0.0666 -19.83723,0.19212 -18.30926,0.27895 1.52796,0.0868 -8.65188,0.18143 -22.62188,0.21021 -13.97,0.0288 -28.525387,0.13073 -32.345309,0.22654 -3.819922,0.0958 -6.960195,0.0956 -6.978385,0 z M 247.83574,199.70467 c -0.43656,-0.11078 -1.09141,-0.35708 -1.45521,-0.54734 -1.13056,-0.59128 -6.61458,-4.33074 -6.61458,-4.51039 0,-0.0936 0.77086,-0.79569 1.71302,-1.5601 4.76318,-3.86459 9.41898,-10.32532 11.26767,-15.63588 0.32928,-0.94589 0.69393,-1.82836 0.81037,-1.96106 0.28443,-0.32417 5.81501,3.35362 6.97667,4.63944 0.50307,0.55684 0.98993,1.31228 1.0819,1.67874 0.092,0.36647 0.2584,0.60996 0.36984,0.54109 0.27961,-0.17282 0.49924,1.39937 0.34102,2.44127 -0.0716,0.47146 -0.2232,0.79971 -0.33689,0.72944 -0.11372,-0.0703 -0.28755,0.19428 -0.38635,0.58789 -0.18627,0.74213 -6.82437,10.48199 -8.04659,11.80648 -1.3499,1.46285 -3.88501,2.25624 -5.72087,1.79042 z m -21.56354,-7.095 c -26.37276,-16.17298 -33.48333,-20.53738 -33.55541,-20.59604 -0.32313,-0.26295 28.23862,-27.95012 29.2465,-28.35094 0.56324,-0.22399 27.70776,21.9417 28.36789,23.16467 0.59389,1.10024 0.4286,3.81531 -0.38899,6.39026 -3.10618,9.78261 -13.53597,21.43701 -19.17207,21.42316 -1.0174,-0.002 -1.67183,-0.29803 -4.49792,-2.03111 z m -42.20104,-22.40793 c -0.43656,-0.19214 -2.64855,-2.24131 -4.91552,-4.55371 -6.46052,-6.58997 -7.81189,-8.11196 -8.17233,-9.20411 -0.37613,-1.13967 -0.20708,-2.71333 0.42219,-3.9302 0.22884,-0.44253 9.32627,-11.4886 20.2165,-24.54682 15.32231,-18.37262 19.98956,-23.80815 20.63672,-24.03375 1.46382,-0.51029 4.00963,0.3246 6.11899,2.0067 0.53298,0.42502 4.16676,4.0385 8.07506,8.02996 7.35976,7.51635 7.75693,8.036 7.75693,10.14925 0,2.20695 0.0265,2.17902 -22.95641,24.36434 -14.83441,14.31973 -22.20495,21.2582 -22.93352,21.58912 -1.25301,0.56914 -3.12004,0.62592 -4.24861,0.12922 z m -23.15104,-20.21662 c -0.80037,-0.26574 -1.93146,-0.78901 -2.51354,-1.16283 -0.58209,-0.37381 -4.67962,-2.3899 -9.10564,-4.48019 -8.84463,-4.17707 -9.60305,-4.69121 -10.81762,-7.33325 -0.81509,-1.77306 -0.95759,-4.72943 -0.32054,-6.65006 0.37936,-1.14373 36.50057,-53.205603 38.05794,-54.853306 0.38591,-0.408289 1.47457,-1.122664 2.41925,-1.5875 1.52801,-0.751859 1.96855,-0.845092 3.99101,-0.844621 3.5918,7.93e-4 3.81729,0.16474 14.12331,10.265756 10.32222,10.116889 10.32961,10.126961 10.33336,14.075381 0.002,1.997805 -0.10426,2.60391 -0.6592,3.76404 -0.80534,1.68359 -35.47372,45.61636 -37.18701,47.12446 -2.14361,1.88689 -5.60014,2.58561 -8.32132,1.68212 z M 119.38054,136.2242 c -5.00163,-2.31056 -12.54427,-6.88633 -18.0431,-10.94592 -3.248187,-2.39802 -4.089988,-3.29228 -4.336604,-4.60685 -0.394409,-2.10238 0.740736,-3.52692 2.982044,-3.74228 1.64106,-0.15769 2.07537,0.18885 3.86588,3.08451 1.65551,2.67735 2.5701,3.26695 5.30875,3.42234 2.84186,0.16125 4.98304,-0.30728 18.68969,-4.08961 7.05776,-1.94757 12.98112,-3.54157 13.16302,-3.5422 0.88278,-0.003 0.22104,0.87271 -7.19616,9.52385 -3.80532,4.43839 -7.63296,8.96276 -8.50586,10.05417 -2.01205,2.5157 -2.2358,2.54748 -5.92766,0.84199 z m 26.00466,-27.89564 c -0.36832,-0.67782 -0.46522,-1.47614 -0.45763,-3.77031 0.008,-2.47843 0.17472,-3.60597 1.12192,-7.59659 1.75652,-7.400343 1.55121,-8.522922 -1.98877,-10.873859 -2.01811,-1.340244 -3.41171,-1.9979 -8.5406,-4.030422 -3.5215,-1.395528 -8.27063,-3.429513 -9.53733,-4.084706 -2.60168,-1.3457 -2.45288,-3.2595 0.60391,-7.767563 0.57612,-0.849643 4.37908,-7.100424 8.45101,-13.890625 4.07194,-6.7902 7.84057,-12.802589 8.37474,-13.360865 2.50208,-2.615007 7.08869,-3.437861 10.22629,-1.834632 1.45301,0.74245 20.35596,12.045873 21.5001,12.856451 2.38669,1.690859 4.01329,5.358596 3.65352,8.238106 -0.0937,0.750276 -0.46011,1.98937 -0.81416,2.753545 -0.76368,1.648317 -14.01561,23.77331 -15.15582,25.30366 -0.43369,0.582083 -1.96689,2.321102 -3.4071,3.864485 -1.44022,1.543384 -3.59322,4.185391 -4.78445,5.871125 -3.90346,5.52389 -7.26988,9.1821 -8.44971,9.1821 -0.18076,0 -0.53893,-0.38696 -0.79592,-0.8599 z M 42.783666,79.152053 c -3.638021,-2.229307 -6.578796,-4.151934 -6.535052,-4.272504 0.04374,-0.120568 1.607174,-1.945622 3.474296,-4.055674 12.295428,-13.895181 21.581435,-26.873848 29.768169,-41.605728 1.273672,-2.291953 2.393521,-4.166095 2.488552,-4.164761 0.09503,0.0013 1.422939,1.039921 2.950908,2.307971 1.527969,1.26805 5.754687,4.72981 9.392708,7.692799 3.638021,2.96299 6.64764,5.476386 6.688045,5.585325 0.07105,0.191569 -1.043401,2.208631 -2.424152,4.38752 -0.368864,0.582083 -1.858711,2.415069 -3.310777,4.0733 -3.358898,3.835796 -4.304011,5.554225 -4.469039,8.125716 l -0.122526,1.909228 -1.088652,-0.384098 c -4.499861,-1.587643 -9.548855,0.05701 -14.683853,4.783092 -1.766885,1.626185 -8.518932,10.205125 -13.487881,17.137285 -0.909516,1.268862 -1.737479,2.358048 -1.839915,2.420419 -0.102436,0.06237 -3.162811,-1.710585 -6.800831,-3.93989 z m 71.305204,-5.924454 c -0.50932,-0.105852 -1.34276,-0.412306 -1.85208,-0.681006 -0.50933,-0.268703 -5.39089,-2.411902 -10.84792,-4.762664 -10.125063,-4.361643 -13.665635,-6.22369 -15.832548,-8.326609 -1.863519,-1.808483 -1.46381,-3.051696 2.468044,-7.676338 1.14505,-1.346806 4.984162,-7.05463 9.52565,-14.162315 4.184154,-6.548437 8.099044,-12.422287 8.699764,-13.053004 1.70346,-1.78852 3.31762,-2.497889 5.98701,-2.631083 1.78815,-0.08923 2.52002,-0.0071 3.57187,0.400654 1.08418,0.420317 12.1398,7.350334 18.78542,11.775299 4.61096,3.070196 5.56064,5.27871 3.74727,8.714431 -1.60799,3.046579 -17.14038,27.051375 -18.25933,28.219182 -1.79562,1.874025 -3.86114,2.626543 -5.99315,2.183453 z M 11.082226,72.796722 C 6.5359358,72.177296 -0.74029076,70.107891 -0.74029076,69.434326 c 0,-0.148447 1.63710926,-1.953684 3.63802066,-4.011634 C 12.207623,55.847406 23.2412,42.918803 31.111911,32.362704 42.289755,17.371124 49.256832,5.1641752 52.846457,-5.7181968 c 0.614072,-1.86163 1.176563,-3.4448498 1.249979,-3.5182662 0.194654,-0.1946542 3.232602,3.6419036 4.882234,6.1656652 4.064027,6.2175305 7.193198,15.1523538 7.669266,21.8982918 l 0.149968,2.125054 -1.489048,2.969077 C 58.47088,37.556162 44.828434,56.542667 32.721882,69.273668 c -2.145953,2.256639 -2.199394,2.292025 -4.125955,2.732014 -5.201332,1.187878 -12.26086,1.506735 -17.513701,0.79104 z m -21.833289,-8.514146 c -8.302661,-5.612992 -15.163234,-14.841373 -18.445631,-24.811825 -1.148426,-3.488399 -2.235262,-8.391094 -2.235262,-10.083213 0,-0.510524 -0.101362,-0.865579 -0.225249,-0.789014 -0.32901,0.203341 -0.58535,-4.55182 -0.392125,-7.273988 0.09143,-1.288097 0.267745,-2.279264 0.391807,-2.202587 0.124062,0.07667 0.225567,-0.299144 0.225567,-0.835152 0,-1.484001 1.203279,-7.083592 2.128367,-9.9045873 1.885861,-5.7508086 5.757595,-12.5008503 9.898536,-17.2572621 5.302018,-6.0900616 13.0084529,-11.2265996 20.9538683,-13.9662946 3.2352376,-1.115558 8.8243617,-2.378526 10.5258967,-2.378526 0.536009,0 0.911718,-0.10168 0.834912,-0.225955 -0.07681,-0.124275 0.957963,-0.297394 2.299491,-0.38471 2.844217,-0.185121 7.379422,0.05842 7.177325,0.385416 -0.07657,0.123887 0.27849,0.225249 0.789014,0.225249 1.639951,0 6.522466,1.067094 9.78626,2.138828 5.183031,1.701955 9.928907,4.161421 14.14061,7.32812 2.25656,1.696665 2.226276,1.253607 0.401847,5.878885 -5.334378,13.5236662 -21.365656,37.697425 -37.361292,56.337548 -6.7266319,7.838713 -14.3482032,15.526779 -18.5917974,18.754 -0.3641799,0.276955 -0.7282272,0.129111 -2.3021446,-0.934932 z"
         id="path3726"
         inkscape:connector-curvature="0" />
    </g>
  </g>
</svg>
