<?xml version="1.0" encoding="UTF-8"?>
<svg xmlns="http://www.w3.org/2000/svg" xmlns:xlink="http://www.w3.org/1999/xlink" width="1500pt" height="2120pt" viewBox="0 0 1500 2120" version="1.1">
<g id="surface1">
<path style=" stroke:none;fill-rule:nonzero;fill:rgb(0%,0%,0%);fill-opacity:1;" d="M 666.152344 757.820312 C 666.152344 887.558594 560.929688 992.730469 431.136719 992.730469 C 301.339844 992.730469 196.121094 887.558594 196.121094 757.820312 C 196.121094 628.085938 301.339844 522.914062 431.136719 522.914062 C 560.929688 522.914062 666.152344 628.085938 666.152344 757.820312 Z M 666.152344 757.820312 "/>
<path style=" stroke:none;fill-rule:nonzero;fill:rgb(255, 204, 51);fill-opacity:1;" d="M 436.53125 897.898438 C 397.824219 897.898438 366.480469 888.226562 342.503906 868.882812 C 316.300781 847.484375 303.199219 817.523438 303.199219 779.003906 C 303.199219 734.496094 313.988281 697.175781 335.566406 667.046875 C 359.03125 634.175781 390.375 617.742188 429.59375 617.742188 C 458.027344 617.742188 481.234375 622.535156 499.214844 632.125 C 521.308594 643.9375 532.355469 662.082031 532.355469 686.5625 C 532.355469 703.679688 522.679688 719.261719 503.328125 733.296875 C 494.761719 739.460938 476.609375 749.046875 448.863281 762.058594 L 350.726562 808.535156 C 360.316406 822.746094 372.21875 833.445312 386.433594 840.636719 C 400.820312 847.824219 417.519531 851.417969 436.53125 851.417969 C 448.347656 851.417969 462.222656 849.195312 478.148438 844.742188 C 498.359375 839.09375 511.375 831.734375 517.199219 822.660156 C 523.023438 813.414062 529.273438 808.792969 535.953125 808.792969 C 541.949219 808.792969 547.257812 811.105469 551.882812 815.726562 C 556.675781 820.175781 559.074219 825.398438 559.074219 831.390625 C 559.074219 850.394531 543.746094 866.742188 513.089844 880.4375 C 486.882812 892.078125 461.363281 897.898438 436.53125 897.898438 Z M 429.59375 663.964844 C 408.699219 663.964844 391.316406 672.097656 377.441406 688.359375 C 363.570312 704.453125 353.207031 728.761719 346.359375 761.289062 L 425.226562 723.796875 C 456.226562 708.730469 478.320312 695.636719 491.507812 684.507812 C 476.78125 670.8125 456.140625 663.964844 429.59375 663.964844 Z M 429.59375 663.964844 "/>

</g>
</svg>
